<?xml version="1.0" encoding="UTF-8" standalone="no"?>
<svg
   width="220"
   height="220"
   viewBox="0 0 220 220"
   version="1.1"
   id="svg167"
   xmlns="http://www.w3.org/2000/svg"
   xmlns:svg="http://www.w3.org/2000/svg"
   xmlns:rdf="http://www.w3.org/1999/02/22-rdf-syntax-ns#"
   xmlns:cc="http://creativecommons.org/ns#"
   xmlns:dc="http://purl.org/dc/elements/1.1/">
  <g
     id="g351"
     transform="matrix(0.96155002,0,0,0.96155002,-86.612219,4.4037789)">
    <path
       fill="#333333"
       d="M 276.63,37.71 C 257.356,18.436 231.73,7.82 204.473,7.82 c -27.258,0 -52.884,10.616 -72.158,29.89 -39.788,39.787 -39.788,104.526 0,144.315 19.274,19.274 44.9,29.89 72.158,29.89 27.256,0 52.883,-10.615 72.157,-29.89 19.245,-19.244 29.845,-44.87 29.845,-72.158 0,-27.288 -10.6,-52.914 -29.845,-72.158 z m -72.157,75.126 c -1.64,0 -2.968,-1.328 -2.968,-2.968 0,-1.64 1.33,-2.968 2.968,-2.968 1.64,0 2.97,1.33 2.97,2.968 -0.002,1.64 -1.33,2.968 -2.97,2.968 z"
       id="path99" />
    <path
       d="m 204.473,9.82 c 26.723,0 51.846,10.408 70.743,29.304 39.01,39.008 39.01,102.478 0,141.487 -18.897,18.897 -44.02,29.304 -70.743,29.304 -26.725,0 -51.848,-10.406 -70.744,-29.303 -39.01,-39.01 -39.01,-102.478 0,-141.485 C 152.624,20.23 177.747,9.82 204.472,9.82 m 0,-4 c -27.79,0 -53.92,10.824 -73.572,30.476 -40.566,40.566 -40.566,106.575 0,147.144 19.652,19.65 45.78,30.475 73.573,30.475 27.79,0 53.92,-10.822 73.57,-30.475 19.624,-19.623 30.43,-45.752 30.43,-73.572 0,-27.822 -10.806,-53.95 -30.43,-73.572 C 258.391,16.644 232.263,5.821 204.473,5.821 Z"
       id="path101" />
    <path
       fill="url(#e)"
       d="M 275.71,39.158 C 236.66,0.105 173.343,0.105 134.29,39.158 l 141.42,141.42 c 39.054,-39.053 39.054,-102.368 0,-141.42 z"
       id="path108"
       style="fill:url(#e)" />
    <path
       fill="url(#f)"
       d="M 134.288,180.58 C 95.236,141.527 95.238,78.21 134.29,39.158 l 141.42,141.42 c -39.052,39.054 -102.368,39.054 -141.422,0.002 z"
       id="path115"
       style="fill:url(#f)" />
    <circle
       fill="none"
       stroke="#000000"
       stroke-width="0.5"
       cx="205"
       cy="110.132"
       r="88.917999"
       id="circle117" />
    <circle
       fill="none"
       stroke="#000000"
       stroke-width="0.5"
       cx="205"
       cy="110.132"
       r="80.228996"
       id="circle119" />
    <circle
       fill="none"
       stroke="#000000"
       stroke-width="0.5"
       cx="204.99899"
       cy="110.132"
       r="65.844002"
       id="circle121" />
    <circle
       fill="none"
       stroke="#000000"
       stroke-width="0.5"
       cx="205"
       cy="110.132"
       r="55.240002"
       id="circle123" />
    <path
       d="m 205,62.808 c -26.137,0 -47.324,21.188 -47.324,47.324 0,26.137 21.188,47.324 47.324,47.324 26.136,0 47.324,-21.188 47.324,-47.324 0,-26.136 -21.187,-47.324 -47.324,-47.324 z m -0.527,50.028 c -1.64,0 -2.968,-1.328 -2.968,-2.968 0,-1.64 1.33,-2.968 2.968,-2.968 1.64,0 2.97,1.33 2.97,2.968 -0.002,1.64 -1.33,2.968 -2.97,2.968 z"
       id="path125" />
    <path
       fill="url(#g)"
       d="m 162.48,19.515 c -9.493,4.462 -18.3,10.45 -26.12,17.836 l -4.143,4.145 c -7.47,7.916 -13.404,16.762 -17.798,26.155 l 133.095,133.102 c 9.49,-4.46 18.3,-10.445 26.117,-17.83 l 4.158,-4.156 c 7.468,-7.914 13.396,-16.758 17.79,-26.146 z m 41.993,93.32 c -1.64,0 -2.968,-1.327 -2.968,-2.967 0,-1.64 1.33,-2.968 2.968,-2.968 1.64,0 2.97,1.33 2.97,2.968 -0.002,1.64 -1.33,2.968 -2.97,2.968 z"
       id="path134"
       style="fill:url(#g)" />
    <path
       fill="url(#h)"
       stroke="#000000"
       stroke-width="0.5"
       d="m 205,72.34 c -20.873,0 -37.793,16.92 -37.793,37.792 0,20.872 16.92,37.793 37.793,37.793 20.873,0 37.793,-16.92 37.793,-37.793 0,-20.873 -16.92,-37.792 -37.793,-37.792 z m -0.527,40.496 c -1.64,0 -2.968,-1.328 -2.968,-2.968 0,-1.64 1.33,-2.968 2.968,-2.968 1.64,0 2.97,1.33 2.97,2.968 -0.002,1.64 -1.33,2.968 -2.97,2.968 z"
       id="path141"
       style="fill:url(#h)" />
    <g
       fill="#ffffff"
       id="g145"
       transform="translate(0,-4.15995)">
      <path
         d="m 218.506,108.272 c -0.473,-0.006 -0.832,0.13 -1.078,0.404 -0.084,0.088 -0.15,0.132 -0.2,0.132 -0.03,0 -0.058,-0.014 -0.08,-0.042 -0.02,-0.028 -0.032,-0.06 -0.032,-0.098 0,-0.074 0.078,-0.164 0.236,-0.27 0.322,-0.217 0.756,-0.325 1.3,-0.325 0.41,0 0.75,0.076 1.02,0.23 0.147,0.08 0.263,0.19 0.343,0.325 0.08,0.136 0.12,0.286 0.12,0.45 0,0.275 -0.11,0.493 -0.332,0.652 -0.204,0.148 -0.46,0.24 -0.762,0.275 -0.16,0.018 -0.262,0.03 -0.305,0.04 l 0.483,0.068 c 0.363,0.045 0.647,0.16 0.853,0.35 0.178,0.16 0.266,0.363 0.266,0.61 0,0.24 -0.084,0.456 -0.252,0.65 -0.324,0.374 -0.858,0.562 -1.604,0.562 -0.568,0 -1.02,-0.112 -1.354,-0.337 -0.222,-0.146 -0.33,-0.284 -0.33,-0.413 0,-0.033 0.01,-0.06 0.035,-0.083 0.025,-0.023 0.055,-0.034 0.088,-0.034 0.043,0 0.075,0.012 0.098,0.032 0.02,0.02 0.057,0.073 0.104,0.157 0.065,0.12 0.18,0.22 0.343,0.293 0.28,0.13 0.584,0.193 0.914,0.193 l 0.132,-0.003 v -1.954 h -0.443 c -0.098,0 -0.158,-0.005 -0.183,-0.016 -0.024,-0.01 -0.036,-0.038 -0.036,-0.08 0,-0.048 0.012,-0.077 0.036,-0.09 0.023,-0.01 0.087,-0.017 0.187,-0.017 h 0.44 l -0.004,-1.66 z m 3.879,0 c -0.473,-0.006 -0.832,0.13 -1.078,0.404 -0.084,0.088 -0.15,0.132 -0.2,0.132 -0.03,0 -0.058,-0.014 -0.08,-0.042 -0.02,-0.028 -0.032,-0.06 -0.032,-0.098 0,-0.074 0.08,-0.164 0.236,-0.27 0.323,-0.217 0.757,-0.325 1.303,-0.325 0.407,0 0.747,0.076 1.017,0.23 0.148,0.08 0.264,0.19 0.344,0.325 0.08,0.136 0.12,0.286 0.12,0.45 0,0.275 -0.11,0.493 -0.33,0.652 -0.206,0.148 -0.46,0.24 -0.764,0.275 -0.16,0.018 -0.262,0.03 -0.305,0.04 l 0.483,0.068 c 0.362,0.045 0.646,0.16 0.853,0.35 0.177,0.16 0.265,0.363 0.265,0.61 0,0.24 -0.084,0.456 -0.252,0.65 -0.323,0.374 -0.858,0.562 -1.604,0.562 -0.57,0 -1.022,-0.112 -1.355,-0.337 -0.22,-0.146 -0.33,-0.284 -0.33,-0.413 0,-0.033 0.01,-0.06 0.035,-0.083 0.025,-0.023 0.054,-0.034 0.087,-0.034 0.043,0 0.075,0.012 0.098,0.032 0.02,0.02 0.057,0.073 0.104,0.157 0.064,0.12 0.18,0.22 0.342,0.293 0.28,0.13 0.584,0.193 0.914,0.193 l 0.133,-0.003 v -1.954 h -0.444 c -0.098,0 -0.158,-0.005 -0.182,-0.016 -0.025,-0.01 -0.037,-0.038 -0.037,-0.08 0,-0.048 0.012,-0.077 0.037,-0.09 0.022,-0.01 0.086,-0.017 0.186,-0.017 h 0.44 v -1.662 h -0.005 z m 3.571,-0.129 -0.013,0.836 0.013,1.146 v 0.048 h -0.845 v -0.048 l 0.013,-1.165 0.002,-0.43 v -0.062 l -0.03,0.01 -0.21,0.065 c -0.022,0.008 -0.04,0.012 -0.057,0.012 -0.03,0 -0.044,-0.017 -0.044,-0.05 0,-0.024 0.008,-0.04 0.022,-0.05 0.016,-0.01 0.06,-0.022 0.133,-0.04 l 0.366,-0.096 0.14,-0.038 0.51,-0.14 z m 1.754,-0.441 c 0.036,-0.002 0.067,0.008 0.095,0.03 0.024,0.023 0.038,0.05 0.038,0.078 0,0.02 -0.022,0.08 -0.065,0.174 -0.045,0.094 -0.196,0.417 -0.46,0.968 l -1.18,2.496 -0.323,0.68 c -0.06,0.127 -0.098,0.21 -0.11,0.246 -0.052,0.125 -0.108,0.188 -0.18,0.188 -0.03,0 -0.057,-0.012 -0.08,-0.032 -0.022,-0.02 -0.034,-0.046 -0.034,-0.073 0,-0.03 0.024,-0.092 0.07,-0.188 l 0.114,-0.245 0.924,-1.938 0.576,-1.222 0.27,-0.565 c 0.148,-0.322 0.234,-0.502 0.256,-0.54 0.02,-0.036 0.05,-0.056 0.09,-0.058 z m 0.306,2.521 c -0.236,-0.003 -0.416,0.064 -0.54,0.202 -0.042,0.044 -0.075,0.066 -0.1,0.066 -0.017,0 -0.028,-0.006 -0.04,-0.02 -0.01,-0.014 -0.018,-0.03 -0.018,-0.05 0,-0.036 0.04,-0.08 0.12,-0.134 0.16,-0.108 0.378,-0.163 0.648,-0.163 0.204,0 0.374,0.038 0.51,0.114 0.073,0.04 0.13,0.095 0.17,0.163 0.04,0.068 0.062,0.143 0.062,0.225 0,0.14 -0.057,0.247 -0.166,0.327 -0.102,0.073 -0.23,0.12 -0.38,0.138 -0.08,0.01 -0.132,0.016 -0.153,0.02 l 0.24,0.034 c 0.183,0.022 0.325,0.082 0.427,0.174 0.088,0.08 0.133,0.183 0.133,0.307 0,0.12 -0.043,0.23 -0.127,0.324 -0.162,0.187 -0.43,0.28 -0.803,0.28 -0.283,0 -0.51,-0.057 -0.676,-0.168 -0.11,-0.074 -0.166,-0.143 -0.166,-0.207 0,-0.018 0.006,-0.03 0.02,-0.043 0.012,-0.01 0.025,-0.017 0.043,-0.017 0.022,0 0.037,0.005 0.048,0.017 0.012,0.01 0.028,0.037 0.053,0.078 0.034,0.062 0.093,0.11 0.174,0.146 0.14,0.064 0.292,0.097 0.457,0.097 h 0.066 v -0.978 h -0.222 c -0.05,0 -0.08,-0.002 -0.092,-0.008 -0.012,-0.006 -0.02,-0.02 -0.02,-0.04 0,-0.024 0.007,-0.04 0.02,-0.046 0.013,-0.006 0.044,-0.007 0.093,-0.007 h 0.22 v -0.83 z m 3.194,1.62 c 0.095,0.064 0.194,0.12 0.304,0.165 0.108,0.045 0.226,0.08 0.35,0.106 0.03,0.006 0.046,0.02 0.046,0.044 0,0.03 -0.02,0.048 -0.066,0.048 -0.103,0 -0.247,-0.045 -0.432,-0.136 -0.154,-0.074 -0.33,-0.19 -0.53,-0.348 v 0.06 l 0.002,0.25 v 0.14 h -0.892 v -0.064 l 0.002,-0.48 0.005,-0.57 -0.004,-0.885 h 0.59 c 0.263,0 0.46,0.007 0.597,0.022 0.135,0.015 0.248,0.042 0.344,0.082 0.154,0.064 0.275,0.17 0.365,0.32 0.084,0.136 0.125,0.278 0.125,0.43 0,0.16 -0.047,0.31 -0.14,0.452 -0.15,0.228 -0.373,0.35 -0.667,0.363 z m -0.14,-0.09 h 0.07 c 0.2,0 0.37,-0.056 0.508,-0.168 0.088,-0.07 0.156,-0.158 0.203,-0.265 0.044,-0.096 0.066,-0.194 0.066,-0.295 0,-0.172 -0.056,-0.324 -0.167,-0.46 -0.086,-0.103 -0.192,-0.176 -0.32,-0.22 -0.128,-0.042 -0.308,-0.065 -0.538,-0.068 l -0.015,0.98 v 0.267 l 0.002,0.068 c 0.06,0.058 0.124,0.11 0.19,0.16 z m 2.106,0.061 v 0.359 h -0.893 l 0.002,-0.09 0.007,-1.03 -0.006,-0.487 v -0.333 l -0.003,-0.06 h 0.67 c 0.27,0 0.48,0.013 0.62,0.036 0.143,0.022 0.26,0.064 0.356,0.125 0.128,0.08 0.228,0.194 0.298,0.338 0.054,0.11 0.08,0.226 0.08,0.347 0,0.13 -0.03,0.256 -0.09,0.375 -0.074,0.144 -0.176,0.252 -0.31,0.33 -0.132,0.076 -0.284,0.114 -0.458,0.114 -0.06,0 -0.155,-0.008 -0.274,-0.026 z m 0,-1.54 v 0.098 l -0.005,0.98 0.004,0.363 c 0.077,0.02 0.178,0.03 0.3,0.03 0.11,0 0.216,-0.02 0.314,-0.064 0.1,-0.044 0.183,-0.105 0.25,-0.186 0.116,-0.136 0.176,-0.293 0.176,-0.474 0,-0.17 -0.06,-0.326 -0.174,-0.463 -0.082,-0.1 -0.188,-0.17 -0.317,-0.216 -0.13,-0.044 -0.297,-0.066 -0.5,-0.066 h -0.046 z m 3.424,-0.168 0.318,1.09 0.146,0.483 0.13,0.437 0.018,0.056 h -0.892 l -0.28,-1.035 -0.604,0.91 -0.62,-0.865 c -0.06,0.21 -0.126,0.47 -0.195,0.776 -0.023,0.116 -0.043,0.186 -0.055,0.207 -0.012,0.021 -0.033,0.033 -0.067,0.033 -0.043,0 -0.063,-0.016 -0.063,-0.044 0,-0.01 0.014,-0.058 0.04,-0.148 l 0.09,-0.312 0.16,-0.54 0.31,-1.052 0.802,1.163 0.763,-1.16 z"
         id="path143" />
    </g>
    <g
       fill="#ffffff"
       id="g149"
       transform="translate(43.284712,2.258331)">
      <path
         d="m 185.057,112.945 c 0.073,-0.073 0.186,-0.11 0.336,-0.11 0.162,0 0.284,0.043 0.367,0.126 0.073,0.074 0.11,0.16 0.11,0.26 h -0.18 c 0,-0.064 -0.022,-0.114 -0.064,-0.157 -0.047,-0.047 -0.12,-0.07 -0.22,-0.07 -0.108,0 -0.184,0.022 -0.227,0.064 -0.036,0.035 -0.056,0.077 -0.056,0.125 0,0.047 0.012,0.08 0.03,0.102 0.026,0.025 0.073,0.052 0.142,0.078 0.12,0.052 0.256,0.11 0.406,0.18 0.042,0.016 0.08,0.042 0.117,0.078 0.057,0.058 0.085,0.125 0.085,0.203 0,0.104 -0.036,0.19 -0.11,0.266 -0.077,0.077 -0.205,0.116 -0.382,0.116 -0.172,0 -0.305,-0.047 -0.398,-0.14 -0.066,-0.068 -0.102,-0.17 -0.102,-0.298 h 0.18 c 0,0.094 0.02,0.16 0.063,0.203 0.058,0.058 0.146,0.087 0.266,0.087 0.11,0 0.19,-0.027 0.242,-0.078 0.042,-0.044 0.063,-0.085 0.063,-0.126 0,-0.047 -0.017,-0.086 -0.047,-0.117 -0.026,-0.026 -0.067,-0.053 -0.125,-0.078 -0.053,-0.027 -0.12,-0.06 -0.203,-0.095 -0.094,-0.043 -0.17,-0.075 -0.228,-0.103 -0.042,-0.017 -0.078,-0.04 -0.108,-0.07 -0.047,-0.046 -0.07,-0.108 -0.07,-0.187 0,-0.1 0.036,-0.185 0.11,-0.26 z m 1,-0.093 h 1.07 V 113 h -0.445 v 1.188 h -0.18 V 113 h -0.445 z m 1.257,0 h 0.858 V 113 h -0.68 v 0.414 h 0.633 v 0.148 h -0.633 v 0.477 h 0.72 v 0.147 h -0.898 v -1.335 z m 1.166,-0.008 h 0.655 c 0.104,0 0.19,0.034 0.258,0.102 0.068,0.068 0.103,0.162 0.103,0.28 0,0.122 -0.034,0.216 -0.103,0.282 -0.035,0.036 -0.088,0.06 -0.156,0.07 l 0.306,0.602 h -0.194 l -0.282,-0.578 h -0.406 v 0.578 h -0.18 v -1.336 h -0.003 z m 0.178,0.148 v 0.46 h 0.46 c 0.053,0 0.098,-0.02 0.134,-0.054 0.036,-0.037 0.055,-0.094 0.055,-0.172 0,-0.074 -0.02,-0.13 -0.063,-0.172 -0.042,-0.043 -0.092,-0.063 -0.148,-0.063 l -0.438,0.002 z m 1.039,-0.14 h 0.86 V 113 h -0.682 v 0.414 h 0.633 v 0.148 h -0.633 v 0.477 h 0.72 v 0.147 h -0.898 v -1.335 z m 1.305,0.148 c 0.11,-0.11 0.242,-0.164 0.398,-0.164 0.156,0 0.29,0.055 0.397,0.164 0.125,0.125 0.188,0.297 0.188,0.516 0,0.219 -0.063,0.392 -0.188,0.517 -0.108,0.108 -0.24,0.163 -0.397,0.163 -0.157,0 -0.29,-0.055 -0.398,-0.163 -0.125,-0.125 -0.188,-0.298 -0.188,-0.517 0,-0.219 0.063,-0.39 0.188,-0.516 z m 0.133,0.102 c -0.09,0.09 -0.133,0.228 -0.133,0.414 0,0.188 0.044,0.325 0.133,0.414 0.078,0.078 0.167,0.117 0.266,0.117 0.1,0 0.19,-0.04 0.268,-0.117 0.09,-0.09 0.133,-0.227 0.133,-0.414 0,-0.187 -0.043,-0.324 -0.132,-0.414 -0.078,-0.078 -0.167,-0.117 -0.267,-0.117 -0.098,0 -0.187,0.038 -0.265,0.117 z"
         id="path147" />
    </g>
    <g
       fill="#ffffff"
       id="g153"
       transform="translate(43.284712,2.258331)">
      <path
         d="m 174.08,111.115 c 0.03,0 0.066,0.023 0.11,0.072 0.132,0.145 0.294,0.26 0.482,0.348 0.19,0.088 0.384,0.132 0.568,0.132 0.204,0 0.31,-0.063 0.31,-0.188 0,-0.08 -0.033,-0.17 -0.105,-0.27 -0.072,-0.1 -0.245,-0.298 -0.52,-0.592 -0.346,-0.373 -0.573,-0.65 -0.69,-0.83 -0.15,-0.237 -0.228,-0.464 -0.228,-0.68 0,-0.324 0.146,-0.59 0.437,-0.796 0.285,-0.203 0.636,-0.304 1.052,-0.304 0.292,0 0.56,0.06 0.803,0.177 0.092,0.046 0.17,0.1 0.235,0.16 0.067,0.06 0.1,0.11 0.1,0.15 0,0.02 -0.01,0.037 -0.026,0.054 -0.022,0.016 -0.04,0.024 -0.06,0.024 -0.03,0 -0.072,-0.027 -0.132,-0.082 -0.097,-0.09 -0.222,-0.165 -0.376,-0.224 -0.155,-0.06 -0.305,-0.09 -0.447,-0.09 -0.09,0 -0.16,0.02 -0.216,0.058 -0.06,0.038 -0.085,0.087 -0.085,0.147 0,0.072 0.035,0.16 0.104,0.265 0.065,0.104 0.185,0.243 0.35,0.416 0.52,0.553 0.836,0.925 0.952,1.118 0.12,0.203 0.183,0.4 0.183,0.587 0,0.16 -0.043,0.312 -0.13,0.456 -0.086,0.144 -0.206,0.26 -0.36,0.352 -0.292,0.176 -0.646,0.262 -1.07,0.262 -0.39,0 -0.73,-0.1 -1.023,-0.3 -0.206,-0.144 -0.312,-0.253 -0.312,-0.333 0,-0.02 0.012,-0.043 0.027,-0.063 0.016,-0.02 0.038,-0.03 0.062,-0.03 z m 4.636,-2.277 v 0.077 l -0.006,0.413 -0.005,0.64 -0.008,0.976 0.01,0.548 0.006,0.24 h -1.36 l 0.016,-0.977 0.007,-0.86 -0.006,-0.454 -0.01,-0.502 0.005,-0.1 h 1.35 z m -0.687,-0.926 c 0.465,0 0.698,0.122 0.698,0.365 0,0.118 -0.063,0.21 -0.187,0.277 -0.122,0.066 -0.295,0.1 -0.52,0.1 -0.44,0 -0.664,-0.126 -0.664,-0.377 0.005,-0.24 0.23,-0.36 0.673,-0.365 z m 4.744,0.204 -0.004,1.295 -0.005,0.917 0.008,1.284 v 0.12 h -1.354 v -0.345 c -0.147,0.146 -0.286,0.25 -0.42,0.31 -0.14,0.063 -0.29,0.095 -0.46,0.095 -0.336,0 -0.636,-0.124 -0.897,-0.372 -0.324,-0.307 -0.482,-0.69 -0.482,-1.162 0,-0.456 0.155,-0.825 0.47,-1.11 0.275,-0.25 0.592,-0.378 0.938,-0.378 0.15,0 0.302,0.03 0.444,0.087 0.146,0.058 0.28,0.146 0.42,0.262 l -0.015,-1 h 1.356 z m -1.343,1.218 c -0.138,-0.125 -0.263,-0.22 -0.373,-0.28 -0.107,-0.063 -0.207,-0.094 -0.29,-0.094 -0.067,0 -0.114,0.024 -0.14,0.073 -0.02,0.048 -0.034,0.14 -0.034,0.274 l 0.003,0.117 v 1.78 c 0.002,0.144 0.008,0.23 0.02,0.267 0.022,0.076 0.07,0.115 0.15,0.115 0.09,0 0.186,-0.033 0.28,-0.1 0.1,-0.067 0.23,-0.18 0.383,-0.347 v -1.804 z m 3.015,1.036 v 0.82 c 0,0.157 0.01,0.26 0.03,0.3 0.036,0.082 0.122,0.123 0.26,0.123 0.206,0 0.407,-0.057 0.606,-0.168 0.2,-0.112 0.374,-0.268 0.522,-0.465 0.05,-0.064 0.082,-0.106 0.104,-0.125 0.02,-0.018 0.045,-0.026 0.07,-0.026 0.027,0 0.054,0.01 0.07,0.03 0.02,0.023 0.03,0.05 0.03,0.085 0,0.074 -0.06,0.175 -0.18,0.3 -0.153,0.16 -0.347,0.29 -0.578,0.392 -0.23,0.1 -0.454,0.15 -0.674,0.15 -0.376,0 -0.708,-0.126 -0.995,-0.378 -0.17,-0.148 -0.298,-0.333 -0.388,-0.55 -0.08,-0.19 -0.12,-0.38 -0.12,-0.572 0,-0.184 0.036,-0.368 0.105,-0.552 0.07,-0.185 0.168,-0.344 0.29,-0.478 0.147,-0.157 0.314,-0.28 0.51,-0.366 0.192,-0.084 0.397,-0.127 0.605,-0.127 0.327,0 0.622,0.096 0.89,0.29 0.412,0.3 0.617,0.734 0.613,1.305 H 185.6 l -0.795,0.002 -0.36,0.007 z m 0.678,-0.176 v -0.77 c -0.004,-0.167 -0.007,-0.266 -0.012,-0.298 0,-0.033 -0.015,-0.063 -0.035,-0.09 -0.05,-0.07 -0.15,-0.105 -0.302,-0.105 -0.155,0 -0.252,0.04 -0.29,0.12 -0.025,0.048 -0.038,0.172 -0.038,0.373 v 0.77 l 0.322,0.012 0.356,-0.01 z m 4.747,-2.296 2.116,3.833 h -1.836 l -0.256,-0.483 h -0.89 l -0.778,-0.004 -0.135,-0.002 -0.174,0.323 c -0.05,0.1 -0.086,0.158 -0.104,0.182 -0.02,0.025 -0.045,0.035 -0.076,0.035 -0.063,0 -0.09,-0.025 -0.09,-0.08 0,-0.02 0.018,-0.064 0.05,-0.127 l 0.362,-0.618 1.604,-2.7 0.207,-0.357 z m -0.824,1.74 -0.463,0.778 -0.37,0.64 0.79,0.01 0.792,-0.01 -0.75,-1.418 z"
         id="path151" />
    </g>
    <g
       fill="#ffffff"
       id="g161" />
    <circle
       fill="none"
       stroke="#55c7eb"
       stroke-width="0.5"
       cx="205"
       cy="110.132"
       r="34.014"
       id="circle163" />
    <path
       fill="#0464bb"
       stroke="#55c7eb"
       stroke-width="0.5"
       d="m 204.47,99.696 c -5.616,0 -10.17,4.554 -10.17,10.172 0,5.618 4.554,10.172 10.17,10.172 5.62,0 10.173,-4.554 10.173,-10.172 0,-5.618 -4.554,-10.172 -10.172,-10.172 z m 0.003,13.14 c -1.64,0 -2.968,-1.328 -2.968,-2.968 0,-1.64 1.33,-2.968 2.968,-2.968 1.64,0 2.97,1.33 2.97,2.968 -0.002,1.64 -1.33,2.968 -2.97,2.968 z"
       id="path165" />
  </g>
  <defs
     id="defs171" />
  <title
     id="title25">Wikitracks Vinyl</title>
  <radialGradient
     id="a"
     cx="890.22198"
     cy="247.95599"
     r="98.153999"
     gradientTransform="matrix(0.707,0.707,0.707,-0.707,-605.102,-430.1)"
     gradientUnits="userSpaceOnUse">
    <stop
       offset=".55"
       id="stop31" />
    <stop
       offset="1"
       stop-opacity="0"
       id="stop33" />
  </radialGradient>
  <radialGradient
     id="b"
     cx="890.22101"
     cy="200.96201"
     r="98.155998"
     gradientTransform="matrix(0.707,0.707,-0.707,0.707,-458.199,-577.002)"
     gradientUnits="userSpaceOnUse">
    <stop
       offset=".55"
       id="stop38" />
    <stop
       offset="1"
       stop-opacity="0"
       id="stop40" />
  </radialGradient>
  <linearGradient
     id="c"
     gradientUnits="userSpaceOnUse"
     x1="146.94299"
     y1="-140.81"
     x2="194.998"
     y2="-92.754997"
     gradientTransform="matrix(1,0,0,-1,-85.932436,-6.3855829)">
    <stop
       offset="0"
       stop-color="#FFF"
       stop-opacity="0"
       id="stop55" />
    <stop
       offset=".429"
       stop-color="#FFF"
       stop-opacity=".214"
       id="stop57" />
    <stop
       offset=".5"
       stop-color="#FFF"
       stop-opacity=".25"
       id="stop59" />
    <stop
       offset=".572"
       stop-color="#FFF"
       stop-opacity=".214"
       id="stop61" />
    <stop
       offset="1"
       stop-color="#FFF"
       stop-opacity="0"
       id="stop63" />
  </linearGradient>
  <radialGradient
     id="d"
     cx="115"
     cy="110.132"
     r="37.792999"
     gradientUnits="userSpaceOnUse">
    <stop
       offset="0"
       stop-color="#f00"
       id="stop68" />
    <stop
       offset="1"
       stop-color="#BF0000"
       id="stop70" />
  </radialGradient>
  <radialGradient
     id="e"
     cx="953.862"
     cy="311.59698"
     r="98.153"
     gradientTransform="matrix(0.707,0.707,0.707,-0.707,-605.102,-430.1)"
     gradientUnits="userSpaceOnUse">
    <stop
       offset=".55"
       id="stop103" />
    <stop
       offset="1"
       stop-opacity="0"
       id="stop105" />
  </radialGradient>
  <radialGradient
     id="f"
     cx="953.86298"
     cy="137.321"
     r="98.153"
     gradientTransform="matrix(0.707,0.707,-0.707,0.707,-458.199,-577.002)"
     gradientUnits="userSpaceOnUse">
    <stop
       offset=".55"
       id="stop110" />
    <stop
       offset="1"
       stop-opacity="0"
       id="stop112" />
  </radialGradient>
  <linearGradient
     id="g"
     gradientUnits="userSpaceOnUse"
     x1="236.909"
     y1="-140.84599"
     x2="285.01001"
     y2="-92.744003"
     gradientTransform="matrix(1,0,0,-1,-55.96,-6.66)">
    <stop
       offset="0"
       stop-color="#231F20"
       stop-opacity="0"
       id="stop127" />
    <stop
       offset=".5"
       stop-color="#FFF"
       stop-opacity=".25"
       id="stop129" />
    <stop
       offset="1"
       stop-color="#231F20"
       stop-opacity="0"
       id="stop131" />
  </linearGradient>
  <radialGradient
     id="h"
     cx="205"
     cy="110.132"
     r="37.792999"
     gradientUnits="userSpaceOnUse">
    <stop
       offset="0"
       stop-color="#29ABE2"
       id="stop136" />
    <stop
       offset="1"
       stop-color="#0071BC"
       id="stop138" />
  </radialGradient>
  <metadata
     id="metadata353">
    <rdf:RDF>
      <cc:Work
         rdf:about="">
        <dc:title>Wikitracks Vinyl</dc:title>
      </cc:Work>
    </rdf:RDF>
  </metadata>
  <g
     id="layer1"
     style="display:inline">
    <circle
       style="fill:none;stroke:none;stroke-width:1.5;paint-order:markers fill stroke"
       id="path689"
       cx="98.613289"
       cy="-118.92944"
       r="16.828896"
       transform="rotate(94.624776)" />
    <text
       xml:space="preserve"
       style="font-style:normal;font-weight:normal;font-size:16.3983px;line-height:1.25;font-family:sans-serif;fill:#ffffff;fill-opacity:1;stroke:none;stroke-width:1.36653"
       x="52.445774"
       y="125.21393"
       id="text1374"
       transform="rotate(-14.125475)"><tspan
         id="tspan1372"
         x="52.445774"
         y="125.21393"
         style="font-style:normal;font-variant:normal;font-weight:normal;font-stretch:normal;font-size:16.3983px;font-family:Aladin;-inkscape-font-specification:Aladin;fill:#ffffff;stroke-width:1.36653">Dubstetten</tspan></text>
  </g>
</svg>
