<?xml version="1.0" encoding="utf-8"?>
<!-- Generator: Adobe Illustrator 27.0.1, SVG Export Plug-In . SVG Version: 6.00 Build 0)  -->
<svg version="1.1" id="Ebene_1" xmlns="http://www.w3.org/2000/svg" xmlns:xlink="http://www.w3.org/1999/xlink" x="0px" y="0px"
	 viewBox="0 0 1920 1500.89" style="enable-background:new 0 0 1920 1500.89;" xml:space="preserve">
<style type="text/css">
	.st0{fill:#1D1D1B;}
</style>
<g>
	<path d="M20.2,1293.67c-5.49-0.74-8.24-2.39-8.24-4.94l1.65-6.59c9.15-19.78,13.73-91,13.73-213.69c0-58.59-1.56-95.21-4.67-109.86
		c-3.12-14.64-5.59-23.98-7.42-28.02l-2.75-5.49c-1.47-1.46-2.2-3.57-2.2-6.32s2.2-5.03,6.59-6.87
		c28.57-11.35,66.1-17.03,112.61-17.03c97.78,0,146.67,62.26,146.67,186.77c0,48.71-8.61,93.2-25.82,133.48
		c-6.96,15.38-15.02,28.66-24.17,39.83c-9.16,11.18-21.15,20.51-35.98,28.02c-14.83,7.5-31.23,11.26-49.16,11.26
		c-3.66-0.37-8.33-0.92-14.01-1.65c-5.68-0.74-14.1-3.48-25.27-8.24s-18.77-10.99-22.8-18.68
		C65.43,1284.33,45.83,1293.67,20.2,1293.67z M125.12,931.67c-6.59,0-12.27,1.1-17.03,3.3c-4.76,2.2-7.14,4.94-7.14,8.24
		c-4.4,15.38-6.59,61.25-6.59,137.61s-0.19,119.12-0.55,128.27c6.95,10.99,17.76,16.48,32.41,16.48c26,0,45.59-14.37,58.78-43.12
		c13.18-28.75,19.78-64.82,19.78-108.22c0-43.4-6.41-78-19.23-103.82C172.73,944.58,152.59,931.67,125.12,931.67z"/>
	<path d="M492.62,1043.18c-6.59,39.55-9.89,89.91-9.89,151.06c0,45.04,1.83,74.71,5.49,88.99l2.2,7.14c0,4.76-4.03,7.14-12.09,7.14
		c-28.2,0-44.31-7.88-48.34-23.62c-0.37-1.83-1.19-2.75-2.47-2.75c-1.29,0-2.47,0.74-3.57,2.2c-11.36,15.01-28.93,22.52-52.73,22.52
		c-13.18,0-26.92-3.3-41.2-9.89c-8.79-4.03-15.93-11.07-21.42-21.15c-5.49-10.07-8.24-22.43-8.24-37.08l8.24-120.3
		c0-25.27-2.57-43.21-7.69-53.83c-1.84-4.03-2.75-6.59-2.75-7.69c0-2.2,0.91-3.66,2.75-4.39c5.85-1.83,13.36-2.75,22.52-2.75
		c35.52,0,53.28,14.65,53.28,43.95c0,9.16-3.76,30.03-11.26,62.62c-7.51,32.6-11.26,55.76-11.26,69.49s3.02,24.26,9.06,31.59
		s14.46,10.99,25.27,10.99c10.8,0,19.31-3.85,25.54-11.54c6.22-7.69,9.89-15.38,10.99-23.07l1.65-11.54
		c1.46-12.81,2.2-35.34,2.2-67.57c0-32.22-1.01-52.64-3.02-61.25c-2.02-8.6-3.02-14.01-3.02-16.2c0-9.15,7.32-16.39,21.97-21.7
		c14.64-5.3,27.83-7.97,39.55-7.97C489.87,1036.59,492.62,1038.79,492.62,1043.18z"/>
	<path d="M629.94,1098.11l-12.63,3.3c-6.59,0-9.89-6.13-9.89-18.4s4.48-22.15,13.46-29.66c8.97-7.5,20.41-11.26,34.33-11.26
		c7.69,0,15.93,2.29,24.72,6.87c8.79,4.58,16.11,10.26,21.97,17.03c5.85,6.78,11.07,17.4,15.66,31.86
		c4.58,14.47,6.87,31.41,6.87,50.81c0,44.68-12,80.94-35.98,108.77c-23.99,27.84-58.69,41.75-104.1,41.75
		c-13.18,0-26.19-1.29-39-3.85l-5.49-1.1c-4.76-1.47-7.51-4.03-8.24-7.69c-1.1-7.69-1.65-25.82-1.65-54.38l3.3-177.98
		c0-27.47-0.74-48.52-2.2-63.17l-1.1-7.69c-0.74-10.25-2.84-19.04-6.32-26.37c-3.48-7.32-6.87-12.08-10.16-14.28l-4.39-2.75
		c-2.57-1.46-3.85-3.11-3.85-4.94c0-5.49,9.15-11.99,27.47-19.5c18.31-7.5,31.67-11.26,40.1-11.26c8.42,0,12.81,2.2,13.18,6.59
		c2.56,22.34,3.84,54.2,3.84,95.58l-2.75,131.84c0,57.5,1.65,97.23,4.94,119.2c0.36,5.13,6.13,7.69,17.3,7.69s20.78-3.11,28.84-9.34
		c8.05-6.22,14.09-14.46,18.13-24.72c7.32-18.68,10.99-39.36,10.99-62.07c0-10.62-1.47-22.15-4.39-34.61
		C657.77,1110.2,646.78,1098.11,629.94,1098.11z"/>
	<path d="M916.13,1212.37c0,15.75-3.02,29.48-9.06,41.2c-6.04,11.73-12.91,20.33-20.6,25.82s-16.85,9.89-27.47,13.18
		c-13.92,4.4-26.56,6.59-37.9,6.59c-23.81,0-43.59-4.67-59.33-14.01c-15.75-9.34-23.62-24.26-23.62-44.77
		c0-12.08,3.3-21.97,9.89-29.66c10.25-11.35,22.52-17.03,36.8-17.03c4.39,0,6.59,2.02,6.59,6.04c0,0.37-0.82,3.21-2.47,8.51
		c-1.65,5.31-2.47,12-2.47,20.05c0,8.06,3.2,15.2,9.61,21.42c6.4,6.23,14.19,9.34,23.35,9.34c9.15,0,16.48-1.55,21.97-4.67
		c5.49-3.11,9.34-7.05,11.54-11.81c3.3-6.59,4.94-12.81,4.94-18.68c0-10.62-5.31-19.78-15.93-27.47
		c-10.63-7.69-22.34-13.73-35.16-18.13c-12.82-4.4-24.54-11.72-35.16-21.97c-10.63-10.25-15.93-23.07-15.93-38.45
		c0-26.37,8.33-46.14,24.99-59.33c16.66-13.18,39.28-19.77,67.84-19.77c12.45,0,25.54,1.74,39.28,5.22
		c13.73,3.48,20.6,9.34,20.6,17.58s-1.37,15.84-4.12,22.8s-6.14,10.44-10.16,10.44c-2.2,0-3.66-0.82-4.39-2.47
		c-0.74-1.65-2.02-3.57-3.85-5.77c-1.84-2.2-6.23-5.03-13.18-8.51c-6.96-3.48-12.91-5.22-17.85-5.22s-8.24,0.09-9.89,0.28
		c-1.65,0.19-4.49,0.74-8.51,1.65c-4.03,0.92-7.69,2.29-10.99,4.12c-8.43,4.76-12.63,11.72-12.63,20.87
		c0,5.86,1.28,10.16,3.84,12.91s4.58,4.86,6.04,6.32c1.46,1.47,4.03,3.21,7.69,5.22c3.66,2.02,6.22,3.39,7.69,4.12
		c1.46,0.74,4.75,2.29,9.89,4.67c5.12,2.39,8.42,3.94,9.89,4.67C896.72,1155.98,916.13,1180.88,916.13,1212.37z"/>
	<path d="M929.86,1073.4l1.65-21.97c0.36-3.3,2.93-4.94,7.69-4.94h19.23l-2.2-43.95v-2.2c0-8.42,6.4-16.48,19.23-24.17
		c12.81-7.69,24.53-11.54,35.16-11.54c3.3,0,4.94,1.47,4.94,4.39v0.55c-1.47,9.89-2.94,35.34-4.4,76.36
		c16.11,0,26.37-0.36,30.76-1.1c4.4-0.73,6.77-1.1,7.14-1.1c2.56,0,3.84,2.2,3.84,6.59c0,4.4-2.02,9.98-6.04,16.75
		c-4.03,6.78-8.43,10.35-13.18,10.71h-23.07c-0.37,12.45-0.55,33.42-0.55,62.9c0,29.48,0.27,53.75,0.82,72.79
		c0.55,19.05,1.18,33.42,1.92,43.12c0.73,9.71,1.55,17.49,2.47,23.35c0.91,5.86,1.65,10.07,2.2,12.63s0.82,4.21,0.82,4.94
		c0,3.66-2.39,5.67-7.14,6.04c-14.28,0-28.48-2.02-42.57-6.04c-14.1-4.03-21.15-10.99-21.15-20.87
		c7.69-61.52,11.54-127.62,11.54-198.31c-9.89,0-17.4,0.37-22.52,1.1h-0.55C932.61,1079.44,930.59,1077.43,929.86,1073.4z"/>
	<path d="M1227.6,1221.16c0,13.92-2.84,26.09-8.51,36.53c-5.68,10.44-12.09,18.13-19.23,23.07s-15.48,8.88-24.99,11.81
		c-12.08,3.66-23.62,5.49-34.61,5.49c-30.76,0-53.47-11.54-68.12-34.61s-21.97-52.46-21.97-88.17c0-35.71,9.06-67.47,27.19-95.31
		c18.13-27.83,45.32-41.75,81.57-41.75c32.96,0,55.29,11.54,67.02,34.61c4.75,8.79,7.14,17.12,7.14,24.99
		c0,7.88-0.37,14.1-1.1,18.68c-0.74,4.58-3.3,11.45-7.69,20.6c-4.39,9.16-10.26,17.4-17.58,24.72
		c-7.33,7.33-18.87,14.28-34.61,20.87c-15.75,6.59-34.25,10.99-55.48,13.18c-2.94,0-4.4,1.29-4.4,3.85c0,3.3,1.18,8.15,3.57,14.56
		c2.38,6.41,5.03,11.81,7.96,16.21c8.05,10.26,19.96,15.38,35.71,15.38c15.74,0,29.11-5.12,40.1-15.38
		c5.85-5.49,10.62-12.27,14.28-20.33c1.46-2.93,3.38-4.39,5.77-4.39c2.38,0,4.3,2.02,5.77,6.04
		C1226.86,1215.86,1227.6,1218.97,1227.6,1221.16z M1107.85,1148.1l0.55,13.73c0,2.2,1.46,3.3,4.39,3.3
		c11.72-1.1,21.97-4.12,30.76-9.06c8.79-4.94,15.38-10.52,19.78-16.75c8.79-13.54,13.54-25.27,14.28-35.16l0.55-6.59
		c0-19.78-7.88-29.66-23.62-29.66c-11.73,0-21.24,5.13-28.57,15.38C1113.89,1099.4,1107.85,1121.01,1107.85,1148.1z"/>
	<path d="M1249.57,1073.4l1.65-21.97c0.36-3.3,2.93-4.94,7.69-4.94h19.23l-2.2-43.95v-2.2c0-8.42,6.4-16.48,19.23-24.17
		c12.81-7.69,24.53-11.54,35.16-11.54c3.3,0,4.94,1.47,4.94,4.39v0.55c-1.47,9.89-2.94,35.34-4.39,76.36
		c16.11,0,26.37-0.36,30.76-1.1c4.39-0.73,6.77-1.1,7.14-1.1c2.56,0,3.85,2.2,3.85,6.59c0,4.4-2.02,9.98-6.04,16.75
		c-4.03,6.78-8.43,10.35-13.18,10.71h-23.07c-0.37,12.45-0.55,33.42-0.55,62.9c0,29.48,0.28,53.75,0.82,72.79
		c0.55,19.05,1.18,33.42,1.92,43.12c0.73,9.71,1.55,17.49,2.47,23.35c0.91,5.86,1.65,10.07,2.2,12.63c0.55,2.56,0.82,4.21,0.82,4.94
		c0,3.66-2.38,5.67-7.14,6.04c-14.28,0-28.48-2.02-42.57-6.04c-14.1-4.03-21.15-10.99-21.15-20.87
		c7.69-61.52,11.54-127.62,11.54-198.31c-9.89,0-17.4,0.37-22.52,1.1h-0.55C1252.32,1079.44,1250.3,1077.43,1249.57,1073.4z"/>
	<path d="M1386.9,1073.4l1.65-21.97c0.36-3.3,2.93-4.94,7.69-4.94h19.23l-2.2-43.95v-2.2c0-8.42,6.4-16.48,19.23-24.17
		c12.81-7.69,24.53-11.54,35.16-11.54c3.3,0,4.94,1.47,4.94,4.39v0.55c-1.47,9.89-2.94,35.34-4.39,76.36
		c16.11,0,26.37-0.36,30.76-1.1c4.39-0.73,6.77-1.1,7.14-1.1c2.56,0,3.85,2.2,3.85,6.59c0,4.4-2.02,9.98-6.04,16.75
		c-4.03,6.78-8.43,10.35-13.18,10.71h-23.07c-0.37,12.45-0.55,33.42-0.55,62.9c0,29.48,0.28,53.75,0.82,72.79
		c0.55,19.05,1.18,33.42,1.92,43.12c0.73,9.71,1.55,17.49,2.47,23.35c0.91,5.86,1.65,10.07,2.2,12.63c0.55,2.56,0.82,4.21,0.82,4.94
		c0,3.66-2.38,5.67-7.14,6.04c-14.28,0-28.48-2.02-42.57-6.04c-14.1-4.03-21.15-10.99-21.15-20.87
		c7.69-61.52,11.54-127.62,11.54-198.31c-9.89,0-17.4,0.37-22.52,1.1h-0.55C1389.65,1079.44,1387.63,1077.43,1386.9,1073.4z"/>
	<path d="M1684.63,1221.16c0,13.92-2.84,26.09-8.51,36.53c-5.68,10.44-12.09,18.13-19.23,23.07s-15.48,8.88-24.99,11.81
		c-12.09,3.66-23.62,5.49-34.61,5.49c-30.76,0-53.47-11.54-68.12-34.61s-21.97-52.46-21.97-88.17c0-35.71,9.06-67.47,27.19-95.31
		c18.13-27.83,45.32-41.75,81.57-41.75c32.96,0,55.29,11.54,67.02,34.61c4.75,8.79,7.14,17.12,7.14,24.99
		c0,7.88-0.37,14.1-1.1,18.68c-0.74,4.58-3.3,11.45-7.69,20.6c-4.39,9.16-10.26,17.4-17.58,24.72
		c-7.33,7.33-18.87,14.28-34.61,20.87c-15.75,6.59-34.25,10.99-55.48,13.18c-2.94,0-4.39,1.29-4.39,3.85c0,3.3,1.18,8.15,3.57,14.56
		c2.38,6.41,5.03,11.81,7.97,16.21c8.05,10.26,19.96,15.38,35.71,15.38c15.74,0,29.11-5.12,40.1-15.38
		c5.85-5.49,10.62-12.27,14.28-20.33c1.46-2.93,3.38-4.39,5.77-4.39c2.38,0,4.3,2.02,5.77,6.04
		C1683.9,1215.86,1684.63,1218.97,1684.63,1221.16z M1564.88,1148.1l0.55,13.73c0,2.2,1.46,3.3,4.4,3.3
		c11.72-1.1,21.97-4.12,30.76-9.06c8.79-4.94,15.38-10.52,19.77-16.75c8.79-13.54,13.54-25.27,14.28-35.16l0.55-6.59
		c0-19.78-7.88-29.66-23.62-29.66c-11.73,0-21.24,5.13-28.57,15.38C1570.92,1099.4,1564.88,1121.01,1564.88,1148.1z"/>
	<path d="M1714.84,1291.48c6.59-39.55,9.89-86.97,9.89-142.27c0-55.29-1.65-91.19-4.94-107.67c0-4.76,5.49-7.14,16.48-7.14
		c16.84,0,28.01,6.41,33.51,19.23c0.36,1.1,1.28,1.65,2.75,1.65c1.46,0,2.56-0.36,3.3-1.1c11.35-11.72,28.93-17.58,52.74-17.58
		c23.8,0,42.66,6.04,56.58,18.13c13.91,12.08,20.87,29.66,20.87,52.73c0,13.92-1.19,33.7-3.57,59.33
		c-2.39,25.64-3.57,44.68-3.57,57.13c0,29.66,4.94,51.09,14.83,64.27c1.46,1.83,2.2,3.66,2.2,5.49c0,4.76-5.13,7.14-15.38,7.14
		c-45.41,0-68.11-20.14-68.11-60.43c0-15.38,3.48-36.8,10.44-64.27c6.95-27.47,10.44-48.34,10.44-62.62
		c0-29.29-12.09-43.95-36.26-43.95c-11.72,0-20.6,3.49-26.64,10.44c-6.04,6.96-9.43,14.93-10.16,23.89
		c-0.74,8.98-1.1,25.91-1.1,50.81c0,38.09,1.28,71.23,3.85,99.43l1.1,12.09c0,10.26-6.69,18.22-20.05,23.9
		c-13.37,5.67-24.91,8.51-34.61,8.51C1719.69,1298.62,1714.84,1296.23,1714.84,1291.48z"/>
</g>
<g>
	<path class="st0" d="M1103.01,461.6c-6.91,6.52-22.13,115.39-22.92,124.85c-4.27,50.77-28.41,64.05-35.13,75.75l0,0
		c-1.02,4.87-45.09,58.7-42.15,63.42c3.65,5.89,59.74-27.28,66.92-34.36c9.43-10.55,11.09-17.14,20.37-18.9
		c18.48-3.5,32.8-13.47,44.62-27.45c8.03-9.5,16.66-18.5,24.1-28.7c-6.41,13.4-12.09,27.14-21.62,38.73
		c-7.01,8.52-14.45,16.59-24.12,22.34c-4.54,2.71-9.06,5.81-12.15,10.23c-9.91,14.17-24.39,22.58-38.87,30.91
		c-21.66,12.48-40.96,27.48-54.23,49.18c-9.22,15.08-16.79,30.41-13.68,49.18c1.97,11.89,0.26,24.16,3.55,36.11
		c4.24,15.43,10.67,29.93,17.1,44.46c2.26,5.12,6.89,4.51,10.59,2.81c20.8-9.56,30.01-24.61,29.44-45.35
		c-0.09-3.03-0.37-6.03,0.46-9.05c5.96-21.6,7.37-44.09,12.91-65.76c1.31-5.13,2.63-10.38,4.89-15.13
		c5.71-12.06,9.6-24.75,14.01-37.28c8.09-22.93,21.2-41.37,43.77-52.95c12.31-6.32,23.45-15.09,31.68-27.14
		c6.84-10.01,15.45-18.52,25.42-25.85c16.55-12.17,31.38-26.4,45.44-41.39c1.04-1.11,1.94-2.35,2.98-3.46
		c12.59-13.38,61.14-42.34,79.03-46.06c13.76-2.86,27.89-0.97,41.84-0.63c5.43,0.12,10.6,0.56,15.76-3.2l3.83-1.46l4.39-0.53
		c10.39-3.83,15.99-24.96,27.3-24.55c12.5,0.45,21.74,8.06,33.67,12.58c-5.78,7.05-14.04,6.51-20.27,9.92
		c-1.95,1.07-4.74,5.09-4.74,5.09s0,0.69-3.51,0.76c-3.51,0.07-12.09-5.04-17.38-4.59c-4.53,0.38-5.79,4.55-8.95,9.32
		c-5.2,7.86-14.82,10.48-24.15,10.35c-9.89-0.14-19.51,2.05-29.33,2.46c-8.7,0.36-17.39,3.79-23.96,9.45
		c-20.71,17.82-41.79,35.29-60.65,55.12c-9.45,9.93-19.37,19.3-29.4,28.59c-1.67,1.55-3.76,2.79-5.02,4.61
		c-1.82,2.65-1.5,5.22,2.34,5.65c2.23,0.26,4.54-0.09,6.83-0.21c15.89-0.8,31.62-3.06,47.71-2.38c9.9,0.42,20.09-2.88,29.96-5.31
		c6.76-1.67,13.57-2.9,20.27-1.84c15.97,2.54,30.67-3.47,45.9-5.83c2.23-0.35,4.32-1.43,6.52-2c4.07-1.06,7.87-0.47,9.56,3.77
		c1.8,4.52-1.14,7.22-4.92,8.82c-3.83,1.63-7.72,3.4-11.76,4.19c-25.31,4.92-50.63,9.52-76.39,11.89
		c-23.84,2.21-47.7,3.52-71.58,4.82c-11.81,0.64-23.25,3.05-34.62,5.73c-10.54,2.48-18.76,9.59-26.99,16.18
		c-12.89,10.33-19.96,25.34-29.35,38.4c-3.5,4.87-3.96,12.18-5.02,18.5c-1.97,11.69-5.67,22.73-10.16,33.7
		c-7.39,18.05-11.35,37-11.93,56.53c-0.38,12.8,5.48,24.07,10.23,36.11c5.05-12.56,11.78-23.97,17.19-36.07
		c19.04-42.59,46.03-78.95,83.16-107.77c15.12-11.74,32.49-18.02,50.18-22.88c11.06-3.03,23.11-2.88,34.66-5.27
		c13-2.7,23.71-6.96,29.11-20.45c5.69-14.23,16.8-21.97,32.11-23.85c3.7-0.45,7.23-2.19,10.91-3.05c3.48-0.82,6.94-0.72,8.99,2.94
		c2.13,3.8,0.3,6.59-2.76,8.71c-4.62,3.19-7.21,7.87-8.94,12.88c-2.49,7.21-6.62,13.48-11.37,20.3c9.12,1.08,15.84-4.11,23.53-4.88
		c3.61-0.36,4.91-4.01,5.96-7.53c3.65-12.31,8.86-24.3,11.23-36.82c3.07-16.21,13.08-25.84,26.22-33.56
		c3.14-1.85,6.41-2.5,9.41,0.33c2.62,2.47,2.44,5.39,0.98,8.36c-1,2.05-1.98,4.14-3.26,6c-6.44,9.37-7.75,19.54-4.77,31.04
		c5.46-1.7,8.51-6.16,11.69-10.14c9-11.28,17.75-22.76,26.54-34.21c16.92-22.05,36.39-41.36,60.46-55.59
		c4.59-2.72,7.56-5.36,6.87-11.49c-2.56-22.94,6.81-41.55,20-59.82c2.67-3.7,5.49-6.99,8.49-9.91c-4.75-6-9.56-11.95-14.49-17.8
		c-1.22,4.36-2.17,8.85-2.9,13.44c-0.36,2.23-0.77,4.47-1.32,6.67c-2,7.96-12.55,17.57-20.43,18.65c-0.72,0.09-1.52,0.07-2.22-0.11
		c-5.94-1.52-17.01-17.71-16.17-24.14c2.11-16.13,8.78-29.52,21.06-39.43c-2.85-3.1-5.74-6.15-8.64-9.18
		c-1.83,5.29-3.99,10.06-6.29,13.51c-6.91,10.39-13.44,21.05-19.74,31.82c-3.94,6.73-9.28,11.89-15.44,16.41
		c-3.51,2.57-6.98,2.94-10.17-0.41c-2.94-3.09-2.13-6.59,0.26-9.26c5.49-6.15,6.42-13.41,6.5-21.17c0.03-2.95,0.56-6.27,1.99-8.78
		c7.82-13.74,14.76-28.23,26.08-39.3c-11.04-10.89-22.43-21.41-34.11-31.6c-1.72,0.38-3.45,0.76-5.18,1.13
		c-2.77-0.45-6.36,2.11-8.1-1.75c-1.42-3.16,0.49-5.85,2.47-8.26c0.06-0.08,0.14-0.13,0.2-0.21
		c-17.01-14.29-34.63-27.84-52.83-40.58c-1.46,0.74-2.94,1.43-4.51,1.98c-6.14,2.15-12.17,1.01-14.14-2.74
		c-1.78-3.38-1.64-8.03,0.19-11.75c-28.1-18.46-57.48-35.05-87.94-49.67c-2.92,1.16-5.91,2.14-9.06,2.74
		c-4.9,0.93-6.32-0.92-7.7-3.85c-1.25-2.66-2.22-5.43-3.29-8.17c-8.88-3.95-17.88-7.69-26.93-11.3
		c-4.43,7.28-10.94,12.01-19.26,14.79c-7.35,2.46-7.34,2.47-9.62,10.78c-11.02-5.81-10.61-5.77-9.5-16.49
		c0.8-7.63,3.11-14.54,6.32-21.01c-18.82-6.51-37.96-12.31-57.39-17.34c-1.96,2.96-3.93,5.93-5.86,8.91
		c-12.82,19.68-22.67,40.51-28.79,63.55c-6.11,22.94-10.04,45.77-9.72,69.43c0.11,8.64,3.6,16.95,1.7,27.53
		c8.46-7.12,15.27-13.83,23.53-18.78c2.66-1.59,2.64-7.47,4.09-11.3c7.89-20.85,22.27-35.46,43.59-45.42
		c2.39,20.48-9.46,33.09-21.53,46.37c10.4,0.97,20.01,1.63,29.55,2.8c16.84,2.07,33.84,3.49,50.16,8.45
		c17.64,5.35,35.9,5.08,53.95,6.48c6.99,0.54,14.17,1.75,21.39-0.22c2.12-0.58,6.19-0.99,8.21,3.29
		c-21.41,7.14-42.39,15.04-66.52,15.56c4.96,9.42,12.72,13.12,19.86,17.73c6.97,4.5,13.43,9.79,20.51,15.04
		c-6.86,6.75-11.61,15.44-18.97,22.13c-4.25,3.86-8.36,4.95-13.39,2.59c-16.07-7.53-27.4-18.58-29.22-37.48
		c-2.11-21.95-2.65-23.34-24.46-26.45c-14.88-2.13-30.43-4.72-45.27-1.65c-16.81,3.48-34.83,7.43-44.7,23.86 M1223.77,689.21
		c-9.5,6.91-19.04,13.98-29.35,19.51c-11.49,6.15-24.23,5.52-36.57,2.07c-5.98-1.67-7.01-6.96-2.44-12.59
		c11.13-13.73,24.14-24.29,43.55-23.65c7.73-2.17,15.43-0.53,22.91,2.59C1229.33,680.26,1230.2,684.53,1223.77,689.21z
		 M1472.12,565.36c2.37-9.61,3.02-19.25,2.6-29.21c-0.73-17.21,8.88-29.97,20.16-41.64c1.69-1.75,3.88-2.79,5.93-0.59
		c7.56,8.19,18.38,14.52,16.31,26.13c1.43,15.19-2.56,25.34-13.97,33.14c-8.36,5.71-16.17,12.53-22.93,20.29
		c-1.49,1.7-3.12,3.64-5.71,2.05c-2.06-1.25-3.12-3.32-3.11-5.73C1471.41,568.34,1471.76,566.82,1472.12,565.36z M1039.04,817.51
		c-3.56,4.9-7.25,9.71-10.96,14.51c-4.97,6.41-8.67,6.96-15.39,2c-11.61-8.6-16.87-19.21-13.98-34.41
		c2.71-14.23,10.54-24.91,19.25-35.43c3.13-3.79,6.93-7.01,10.18-10.7c2.65-3,5.36-5.52,9.71-4.19c4.4,1.34,5.3,4.96,5.51,8.97
		c0.1,1.89,0.3,3.78,0.25,3.09c0.14,7.18,0.54,11.79,2.48,15.94C1053.16,792.4,1047.94,805.27,1039.04,817.51z M1139.32,411.02
		c0.76-7.65,5.79-11.4,14.32-10.91c22.8,1.34,42.52,9.24,58.18,26.48c4.03,4.44,9.29,7.75,13.82,11.78
		c2.61,2.32,4.78,5.15,3.24,8.97c-1.43,3.53-4.57,4.54-8.1,5.35c-5.95,1.35-11.78-2.7-19.55,0.09c14.13,5.45,23.58,14.56,32.7,24.1
		c3.71,3.88,6.73,8.25,8.56,13.28c2.62,7.24,0.66,10.35-6.69,12.5c-3.52,1.03-6.89,0.89-9.99-0.4
		c-21.4-8.89-40.06-21.35-52.78-41.36c-1.43-2.24-3.42-4.44-1.8-7.21c1.7-2.91,4.37-3.78,7.79-2.94c5.09,1.26,10.25,2.41,16.41,1.41
		c-9.72-3.81-18.68-6.18-28.46-6.53C1149.07,444.99,1138.04,423.93,1139.32,411.02z M1132.03,609.1c-3.59,0.55-6.07-0.98-5.3-5.12
		c2.13-11.53,3.54-23.29,6.9-34.46c2.38-7.9,8.41-14.03,17.2-17.73c1.55,8.95,2.65,17.43,4.81,25.78
		C1158.26,587.69,1142.41,607.52,1132.03,609.1z M1147.85,490.51c-4.66-7.32-8.14-15.31-13.45-22.33
		c-3.79-5.01-1.26-10.42,4.27-11.06c1.93-0.19,3.69,0.27,5.47,1.09c2.74,1.26,5.53,2.49,8.43,3.3c9.27,2.62,17.89,5.45,21.4,16.26
		c1.29,3.95,5.6,7.05,8.88,10.16c3.46,3.26,4.51,5.91-0.28,8.77c-1.94,1.16-3.66,2.69-5.44,4.1c-10.99,8.68-11.97,8.68-22.13-1.51
		C1152.35,496.63,1149.87,493.68,1147.85,490.51z M1191.96,522.23c7.11,21.47,1.8,42.55-4.2,63.31c-1.65,5.7-5.19,6.37-10.66,3.44
		c-15.96-8.55-23.17-29.87-15.3-46.04c2.66-5.47,5.06-10.93,6.43-16.91c2.55-11.1,10.37-18.19,19.41-24.18
		c1.27-0.84,2.78-1.31,4.32-0.67c0.64,0.27,1.14,0.88,2.58,2.05C1187.92,508.67,1189.53,514.9,1191.96,522.23z M1244.16,551.87
		c-9.71,13.15-21.98,23.4-36.55,34.58c1.62-19.65,2.48-37,11.53-52.72c3.19-5.55,9.73-6.73,13.71-11.46
		c5.08-6.05,12.44-9.32,19.6-14.47C1255.94,524.71,1253.72,538.91,1244.16,551.87z M1362.84,346.5c16.37-3.92,32.77-4.85,49.08,0.62
		c3.67,1.23,8.76,2.83,7.93,6.52c-0.8,3.59-2.25,8.4-6.86,10.53c-11,5.08-22.32,9.09-34.27,11.22
		c-10.07,0.66-24.67-8.32-28.43-17.44c-1.22-2.95-0.33-5.27,2.32-6.7C1355.93,349.46,1359.26,347.36,1362.84,346.5z M1170.51,289.58
		c-3.47,2.15-7.85,2.96-9.66,7.31c-1.38,3.32-3.78,1.23-5.76,0.93c-3.19-0.48-2.88-2.75-2.57-5.17
		c2.49-19.27,9.17-36.69,22.05-51.54c3.65-4.2,8.06-6.66,11.51-7.55c4.54-0.12,4.11,1.07,8.96,2.27c-1.92,2.96-7.01,5.93-9.32,8.05
		c-3.26,2.99-3.64,6.28-3.89,10.71c-0.24,4.14,4.89,8.28,4.27,12.41C1184.6,277.1,1178.94,284.37,1170.51,289.58z M1223.36,348.42
		c-2.18,2.05-5.14,0.75-8.28,1.72c-4.26-0.31-9.16-0.53-14.01-1.08c-3.83-0.44-6.1-3.03-6.94-6.62c-2.02-8.55-1.61-16.59,5.4-23.1
		c9.93-9.23,21.51-15.51,34.64-18.59c10.3-2.41,20.95-3.27,30.52-8.52c3.9-2.14,8.28-2.14,10.95,2.42c2.17,3.7-0.14,6.44-2.65,8.97
		c-9.63,9.68-19.49,19.15-28.79,29.12C1238.12,339.28,1229.72,342.43,1223.36,348.42z M1290.95,361.52
		c-2.01,1.04-3.97,2.22-6.03,3.13c-11.49,5.08-16.21,2.28-17.12-10.66c-0.88-12.49,2.51-22.8,14.05-30.09
		c10.15-6.41,19.95-12.58,32.25-10.94c8.33-1.55,16.24,0,24.17,0.47c2.2,0.13,4.6,0.68,6.47,1.79c4.82,2.87,4.99,7.57,0.24,10.83
		c-4.99,3.42-10.35,6.3-15.56,9.4C1316.09,343.38,1304.79,354.33,1290.95,361.52z M1304.18,508.13
		c-7.51,8.02-17.68,12.73-26.53,19.08c-4.19,3-6.13-0.65-8.03-4.62c-10.69-22.31-4.13-42.41,8.64-60.85
		c8.12-11.73,18.58-21.85,28.1-32.59c1.59-1.8,3.2-4.64,6.48-2.59c2.62,1.64,2.39,4.52,3.07,7.68c-0.41,1.26-1.41,3.01-1.49,4.81
		c-0.3,7.05-0.93,13.88,0.12,21.21C1316.96,477.07,1317.02,494.4,1304.18,508.13z M1366.31,470.95c-3,0.66-4.59,2.89-4.88,5.63
		c-0.53,5.09-3.96,8.96-5.25,13.72c-4.18,15.34-17.24,21.17-29.96,26.88c-6.17,2.77-10.7-0.82-10.77-7.17
		c-0.22-21.63,20.91-44.44,42.63-46.05c2.27,0.15,4.54,0.25,6.81,0.45c2.17,0.2,5.13-0.36,5.72,2.39
		C1371.23,469.67,1368.64,470.44,1366.31,470.95z M1370.69,419.76c-3.6-8.29-11.19-9.36-17.49-8.1c-17.45,3.51-29.59-5.77-42-15.09
		c-1.77-1.33-3.72-2.94-3.06-5.6c0.58-2.3,2.83-2.21,4.61-2.58c7.04-1.49,13.9-3.67,21.22-3.9c14.74-0.46,30.95,5.45,36.01,24.69
		C1370.85,412.45,1371.97,415.64,1370.69,419.76z M1380.4,455.01c6.23-15.91,12.88-31.51,28.16-41.24c0.96-0.61,2.42-1.15,2.67-2
		c3.84-13.25,15.46-11.77,25.31-13.75c0.13,0.57,0.4,1.16,0.27,1.27c-9.61,7.64-12.69,18.12-15.48,29.74
		c-3.68,15.32-13.86,26.48-29.67,31.43c-2.18,0.68-4.32,1.72-6.54,1.36C1381.38,461.22,1378.58,459.65,1380.4,455.01z
		 M1429.36,474.8c-7.42,8.87-18.13,13.13-28.24,17.99c-3.93,1.88-8.99,1.35-11.54-1.98c-2.38-3.12-2.41-7.93,0.13-11.68
		c2.53-3.75,4.98-7.75,8.28-10.77c9.86-8.99,21.18-15.88,33.93-19.86c11.38-3.56,14.35-1.34,16.78,10.55
		c0.2,0.99,0.83,1.91,1.85,4.14C1440.73,463.89,1434.7,468.4,1429.36,474.8z M1360.54,596.62c-0.77-3.13-2.79-4.98-5.75-3.43
		c-9.15,4.81-65.66,3.85-75.52,7.38c2.69,3.8,52.99,5.37,55.97,7.46c6.35,4.47,6.11,10.71-0.92,13.99
		c-7.54,3.52-15.15,6.93-22.94,9.84c-16.46,6.15-38.85-0.78-50.27-15.18c-3.52-4.44-1.91-9.44,4.07-11.16
		c6.15-1.78,12.49-2.96,18.77-4.31c5.14-1.11,7.75-3.59,9.93-9.08c5.27-13.27,17.19-20.4,29.28-26.99
		c12.54-6.84,25.29-6.51,38.17-1.83c9.4,3.42-6.12,23.53-7.94,32.47c13.76,2.15,44.58-15.44,56.95-10.13
		c2.07,0.89,4.34,1.68,5.98,3.11c2.52,2.2,1.71,3.22-0.46,6.45c-4.36,6.47-9.69,7.23-16.12,7.97c-7.01,0.8-13.79,3.84-21.11,1.63
		 M1372.62,601.5"/>
	<path class="st0" d="M509.91,336.55c23.88,39.11,41.52,81.52,60.24,123.63c-0.39-4.73-0.79-9.46-1.16-14.19
		c-0.62-7.92-2.13-15.72-1.16-23.81c0.46-3.9-0.86-8.34-2.41-12.11c-8.96-21.84-7.87-44.59-6.15-67.31
		c0.7-9.23,1.11-18.63,4.21-27.63c1.85,9.05,2.81,17.91,2.18,27.27c-0.73,10.86,0.96,21.83,2.78,32.76
		c2.5,14.97,10.11,28.56,10.76,43.95c0.17,4.05,1.34,8.45,3.32,11.98c7.73,13.79,7.92,28.97,8.94,44.01
		c0.41,6.03-0.48,12.2,0.31,18.15c1.85,13.79-1.22,27.02-3.37,40.4c-1.09,6.81-0.55,13.63,0.45,20.42
		c0.57,3.87,1.41,8.31,4.71,10.02c13.53,7.01,24.55,18.84,41.06,20.26c10.86,0.94,3.38,15.44,14.17,17.26
		c12.32,2.08,26.6,4.68,39.28,3.83c12.53,1.26,23.75,4.33,32.81,5.03c17.35,1.34,60.15,16.54,78.08,14.13
		c-1.43-5.72-22.36-37.32-24.99-41.69c-2.52-4.21-5.8-7.98-8.43-12.14c-5.77-9.13-13.47-16.29-24.04-24.33
		c5.97,12.25,2.8,23.21,4.86,34.12c-16.2,1.16-28.98-5.09-40.75-14.25c-3.59-2.79-7-5.89-10.85-8.28c-3.77-2.34-7.3-4.44-5.47-9.66
		c1.82-5.2,6.01-7.42,11.12-8.54c3.05-0.66,5.61,2.79,9.17,0.61c-9.5-7.22-19.74-13.12-30.65-16.65
		c-23.71-7.66-41.19-23.44-58.07-40.58c-12.12-12.3-15.96-27-14.05-43.58c1.22-10.53,3.04-20.99,4.52-31.5
		c0.23-1.66,0.68-3.1,2.51-2.97c0.92,0.07,2.21,0.96,2.57,1.8c1.61,3.83,2.96,7.77,4.37,11.69c-0.21,14.63-5.71,23.15-0.46,33.64
		c10.21,20.36,8.46,25.02,54.09,44.52c3.55,0.69,44.89,19.84,48.2,18.4c-0.76-9.28-29.07-30.17-32.92-54.45
		c-2.73-14.77-2.12-29.45-0.95-44.24c0.62-7.93,0.78-15.88,1.32-23.81c0.3-4.34,1.59-6.16,4.96-1.51c1.34,1.86,2.85,0.41,3.29-0.92
		c3.68-11.24,11.99-20.43,15.57-31.23c3.97-11.97,7.63-24.74,7.4-37.68c-0.43-24.49,0.62-48.76,4.83-72.95
		c1.48-8.49,3.52-16.8,5.97-24.98c-20.28,6.35-40.17,13.52-59.62,21.48c6.05,9.03,10.21,18.79,7.91,31.62
		c-3.16,1.34-3.63-1.53-4.83-3.22c-5.43-7.63-10.74-15.36-16.31-22.88c-16.06,6.93-31.8,14.42-47.23,22.4
		c1.5,9.53,2.55,19.15,3.05,28.82c0.09,1.78,0.7,3.74-1.78,5.87c-7.47-8.38-16.5-14.92-25.48-21.59
		c-13.96,7.89-27.66,16.16-41.03,24.88c-0.33,1.15-0.74,2.25-1.42,3.27c-6.45,9.62-13.72,18.46-26.49,23.88
		c1.44-3.36,2.04-6.51,2.2-9.56C517.31,331.11,513.59,333.81,509.91,336.55z M617.7,513.24c1.97-2.52,4.47-2.29,7.09-0.96
		c14.96,7.61,29.16,16.06,36.73,32.15c0.79,1.68,2.34,2.99,2.33,5.79c-0.51,4.94-3.76,8.93-8.04,12.34
		c-3.95,3.14-6.64,0.21-10.12-1.33c-10.08-4.46-15.86-12.75-20.22-22.03c-2.54-5.4-3.61-11.22-8.46-15.61
		C613.96,520.8,615.14,516.51,617.7,513.24z M639.36,304.6c0.39-2.68,0.85-5.2,2.77-7.25c3.51-3.77,7.27-3,11.03,0.61
		c8.73,8.4,9.71,19.95,12.7,30.47c3.3,11.65,3.12,23.97,3.64,36.08c0.07,1.58-0.72,2.87-3.14,4.01
		C646.7,351.89,635.43,331.61,639.36,304.6z M639.92,386.21c5.24,1.24,8.25,4.93,10.59,8.45c6.9,10.36,14.39,20.56,16.83,33.17
		c1.12,5.8,3.46,11.94-1.9,17.13c-3.47,3.35-0.3,6.68,1.69,11.03c-14.93-6.02-23.42-14.68-25.63-29.52
		C639.52,413.24,638.69,400.14,639.92,386.21z M586.57,302.71c3.54-1.17,5.46,1.83,7.38,4.12c7.77,9.31,15.83,18.03,26.66,24.25
		c6.53,3.74,8.39,11.59,8.36,18.99c-0.06,12.77-0.68,25.54-1.07,38.25c-6.47,1-8.51-3.68-11.23-7.05
		c-3.56-4.43-7.46-7.97-12.56-10.95c-8.31-4.86-14.05-12.05-14.92-22.67c-1.02-12.43-3.31-24.75-4.79-37.14
		C584.08,307.81,582.51,304.05,586.57,302.71z"/>
	<path class="st0" d="M466.67,539.08c-4.72,4.32-3.7,8.67,0.23,12.86c4.17,4.43,8.48,8.64,13.98,11.57
		c12.74,6.81,25.63,13.23,39.77,16.7c1.1,0.27,2.21,0.66,3.2,1.18c17.48,9.14,36.74,10.96,57.23,13.68
		c-5.34-8.76-9.48-17.37-16.38-24.02c-8.13-7.85-11.54-17.44-13.03-28.33c-2.25-16.54-1.49-33.07-1.07-49.65
		c0.34-13.74-4.14-26.89-6.39-40.32c-0.56-3.31-2.18-5.79-5.67-6.22c-2.83-0.36-3.47,2.21-4.71,4.08
		c-3.84,5.83-7.46,6.98-14.25,4.23c-7.11-2.88-13.8-6.78-18.59-12.83c-7.8-9.84-16.19-19.12-24.74-28.29
		c-1.72-1.85-2.71-4.39-4.72-7.76c16.91,0.48,31.48,3.79,44.18,13.55c5.74,4.41,11.35,8.92,15.52,14.97
		c1.35,1.96,3.24,3.83,5.62,2.4c2.42-1.45,1.38-4.12,0.53-6.15c-4.36-10.5-8.94-20.91-13.26-31.43
		c-5.46-13.31-12.01-26.08-19.05-38.58c-5.69-10.1-7.52-10.53-17.7-4.61c-2.46,1.43-4.86,2.77-7.41,3.82
		c-22.4,18.42-43.7,38.06-63.79,58.87c2.46,3,4.71,6.19,6.59,9.69c4.16,7.72,6.62,16.12,8.68,24.64c1.24,5.13-0.16,9.74-2.28,14.26
		c-1.45,3.09-2.8,6.26-4.64,9.11c-6.02,9.35-6.08,18.23,1.62,26.66c7.93,8.69,15.58,17.6,22.36,27.23c1.16,1.66,2.86,2.87,4.81,1.75
		c1.9-1.1,1.84-3.25,1-5.02c-0.96-2.04-2.24-3.94-3.51-5.81c-13.46-19.96-16.11-41.19-7.27-63.66c2.98-7.57,6.35-14.99,10.26-24.17
		c4.86,9.18,6.71,17.25,7.89,25.27c1.55,10.6,4.36,20.6,8.33,30.58c4.81,12.09,6.7,24.79,2.66,37.86
		C471.34,531.62,470.21,535.83,466.67,539.08z"/>
	<path class="st0" d="M1022.93,410.57c-11.6-5.51-20.34-15.45-32.7-21.47c6.93,17.21,21.59,23.96,35.9,31.37
		C1023.6,417.47,1026.3,412.18,1022.93,410.57z"/>
	<path class="st0" d="M1011.3,236.74c-10.97-11.95-16.68-16.2-16.68-30.46c0-3.39,1.01-6.19,3.95-10.11
		c1.22-2.89,3.56-4.36,4.9-6.22c-17.39-0.8-44.26-1.19-61.9-0.8c-0.03,0.04-0.06,0.09-0.09,0.12c-7.22,9.36-7.54,21.24-11.61,31.75
		c-1.89,4.88,1.06,9.73,2.29,14.4c2.26,8.63,5.03,17.18,10.34,24.83c-0.98-12.05-1.94-24.1-2.96-36.15c-0.32-3.82-0.36-7.45,1.68-11
		c3.38-5.9,8.06-11.44,12.72-16.09c5.21,0.91,8.94,14.43,9.65,20.45c0.44,3.76,0.88,7.54,1.56,11.26c0.99,5.44,0.35,10.6-2.24,15.47
		c-4.27,8-7.43,16.68-14.01,23.29c-2.89,2.91-3.42,6.12-2.94,10.25c1.11,9.64,14.71,37.55,21.44,45.42
		c-4.89-22.44-4.89-20.42-5.4-27.17c-3.23-19.82,8.04-41.53,18.01-50.05c3.08,1.62,3.42,4.5,8.31,10.73
		c4.89,9.11,5.76,10.9,7.61,18.92c0.17,0.74,0.38,1.49,0.43,2.23c1.32,18.76-0.27,37.11-7.8,54.59c-1.66,3.83-3.47,7.58-7.93,10.01
		c9.96,14.07,24.84,20.57,38.21,28.69c13.36,8.11,46.49,29.24,62.01,33.67c4.35-11.04,4.53-51.71,4.39-62.27
		c-0.24-17.69,9.49-50.74,15.36-67.21c9.84-27.6,10.98-28.8,23.4-55.22c3.75-7.97,3.72-5.51,8.41-12.8
		c-5.46-1.23-19.38-2.39-24.88-3.49c-3.31,6.14-6.76,12.2-10.43,18.13c-3.97,6.43-7.96,6.84-12.17,0.65
		c-5.47-8.07-11.14-16.12-14.56-25.33c-4.94-0.74-18.1-2.22-23.07-2.86c0.44,5.08,9.38,10.97,9.33,16.05
		c-0.05,5.89-4.91,13.63-8.12,14.05c-4.19,0.56-10.68-7.27-10.82-14.09c-0.12-5.77,9.22-10.27,9.61-16.01
		c-10.78-1.15-30.78-3.3-41.67-3.98c0.05,6.78,4.83,11.27,8.5,16.09c7.13,9.34,11.32,19.51,11.31,31.34
		c0.04,2.58-0.29,5.2,0.68,7.79 M1048.38,253.76c3.92-7.68,8.85-13.73,15.27-19.03c4.2-3.47,8.75-5.94,13.74-5.61
		c0,0-7.51,7.36-7.51,12.48c0.02,1.87-3.17,11.97-3.75,13.74c-5.39,16.64,14.2,21.79,10.17,38.71c-0.97,4.03-2.18,8.05-3.73,11.88
		c-3.47,8.58-11.31,10.12-17.49,3.64C1041.59,295.42,1039.38,271.39,1048.38,253.76z M1032.44,324.33c1.08-3.41,6.77-17.2,6.77-17.2
		c3.56-0.12,5.83,12.57,6.55,15.8c2.94,13.27,11.06,25.05,11.61,39.07c0.15,1.88,0.36,3.77,0.45,5.65c0.22,4.33,0.05,9.39-5.05,9.98
		c-4.48,0.51-10.37,0.78-13.38-3.7C1029.1,358.63,1026.83,341.97,1032.44,324.33z"/>
	<path class="st0" d="M281.55,838.97c3.2,2.34,7.08,2.57,10.95,2.28c15.15-1.1,30.56-0.69,45.45-2.78
		c23.64-3.31,47.49-4.44,71.12-8.23c17.06-2.74,33.89-7.44,51.72-7.09c10.45,0.21,20.9-5.79,31.62-8.27
		c14.8-3.41,29.82-5.54,44.79-6.42c13.1-0.77,26.31-2.15,40.67-0.41c-4.08-8.58-11.22-11.89-17.44-15.53
		c-20.24-11.86-41.05-22.5-62.87-31.49c-15.02-6.19-30.06-12.44-45.09-18.68c-14.67-6.09-29.39-8.93-45.43-7.38
		c-24.22,2.35-48.35,4.99-72.4,8.79c-25.68,4.05-49.1-0.78-68.04-20.33c-5.35-5.52-11.25-10.62-19.47-3.83
		c-1.04,0.86-3.7,0.2-5.45-0.3c-1.1-0.31-2.21-0.55-3.3-0.8c-8.96,28.77-16.23,58.24-21.7,88.27c3.13,1.01,5.81,2.66,8.21,5.24
		c10.53,11.33,24.2,16.43,38.71,20.26C269.7,833.92,276.15,835.03,281.55,838.97z M447.57,767.73c1.46-1.43,3.51-1.65,5.32-0.98
		c10.08,3.71,20.93,3.46,31.19,6.17c3.29,0.87,6.6,1.85,9.69,3.26c6.87,3.14,10.08,9.07,8.77,15.46
		c-1.45,6.99-7.25,12.13-16.46,12.76c-7.09-0.77-15.6-3.98-22.83-9.68c-6.92-5.46-11.09-13.41-15.85-20.7
		C446.18,772.17,445.59,769.66,447.57,767.73z M321.2,764.6c9.95,2.04,13.63,12.33,22.11,16.24c8.41,3.88,18.11,6.15,24.28,16.09
		c0.55-7.73-3.36-12.31-4.78-17.61c-0.36-1.34-0.5-3.09,1.54-3.59c1.23-0.3,2.37,0.19,2.85,1.25c6.83,14.9,21.46,19.47,34.49,26.15
		c4.03,2.07,8.26,3.9,11.97,6.46c3.3,2.27,6.58,5.08,5.87,10.97c-6.59-1.16-12.64,0.68-18.84,1.81
		c-11.29,2.05-21.22-0.28-26.44-12.13c-0.63-1.44-1.53-2.58-3.33-3.21c0.12,6.64,2.02,12.49,7.91,17.65
		c-11.69,7.32-20.75,5.9-30.04-0.95C328.99,809.14,318.43,790.48,321.2,764.6z M285.36,786.2c-0.14-7.07-2.2-14.25,1.65-21.81
		c12.47,8.19,24.04,17.06,33.36,28.48c3.73,4.57,2.71,17.09-1.16,21.55c-2,2.31-4.99,2.2-7.42,1.29
		C297.74,810.45,285.75,806.2,285.36,786.2z M232.3,806.85c17.34-1.11,33.62-2.38,46.32,11.63c1.76,1.94,3.55,4.02,4.63,6.36
		c1.45,3.14,0.34,5.47-3.5,4.41c-9.76-2.69-19.86-4.45-29.09-8.74C244.11,817.47,236.22,815.98,232.3,806.85z"/>
	<path class="st0" d="M746.59,660.28c1.26-11.06-25.78-12.43-32.11-13.58c-19.99-3.63-39.86-9.1-60.61-6.1
		c-6.06,0.87-12.52-0.07-17.19-4.24c-12.51-11.17-27.99-12.83-43.49-14.47c-16.24-1.72-32.5-3.14-47.69-9.87
		c-3.47-1.53-7.24-2.55-10.42-4.52c-11.71-7.26-24.41-12.21-37.32-16.75c-6.42-2.25-12.74-4.63-18.62-8.29
		c-6.76-4.21-8.73-3.35-10.98,4.7c-1.37,4.91-2.73,9.33-7.78,11.83c-5.75,2.85-11.85,3.08-17.8,2.21
		c-13.93-2.03-26.45-6.35-32.99-20.78c-2.09-4.61-6.42-8.22-10.24-12.93c4.37-2.25,8.59-1.76,12.33-1.15
		c11.21,1.85,22.59,3.5,32.84,8.83c7.22,3.76,14.35,3.64,21.96,1.2c-0.11-4.25-3.51-5.72-5.92-7.91
		c-12.06-10.96-24.11-21.97-33.34-35.54c-2.34-3.44-4.3-3.49-8.32-2.7c-11.9,2.35-23.07,7.44-35.4,8.32
		c-9.28,0.66-17.31-1.17-24.48-6.91c-6.13-4.9-12.18-9.88-18.39-14.91c4.33-5.85,10.02-6.17,14.92-5.25
		c12.77,2.39,25.73,1.64,38.52,3.12c5.68,0.66,11.15,2.19,16.47,4.31c2.16,0.86,4.45,1.57,6.08-0.85c1.18-1.76,0.73-3.89-0.32-5.4
		c-8.21-11.69-12.37-25.8-22.42-36.4c3.52-4.27,6.96-3.38,10.12-0.62c1.67,1.45,2.66,3.65,4.08,5.42c0.95,1.17,2.08,2.28,3.84,1.85
		c2.27-0.57,2.89-2.54,2.89-4.36c0-7.05-1.75-14.19-6.37-19.11c-6.26-6.65-8.67-14.11-9.72-21.86c-8.84,9.8-17.45,19.82-25.77,30.06
		c1,4.25,1.86,8.55,2.76,12.81c0.95,4.46,1.77,8.92,3.92,14.51c-9.44,0.67-18.14,0.32-26.12-2.26
		c-42.04,56.46-76.28,118.87-101.28,185.53c8.78,10.37,20.47,17.97,31.62,25.87c6.84,4.85,15.16,4.99,22.98,4.95
		c18.4-0.09,36.9-0.27,55.97-8.11c-25.45-7.8-34.78-26.12-35.87-51.84c9.98,3.7,17.67,9.01,23.53,16.9
		c5.43,7.3,10.52,14.85,15.75,22.29c0.86,1.23,1.83,2.43,2.47,3.78c1.39,2.92-0.45,7.66,3.76,8.78c3.16,0.84,6.79,0.33,10.15-0.08
		c24.64-3.01,49.04,2.04,74.39,2.08c-1.45-11.48-0.48-23.11-3.36-34.49c-3.66-14.47-13.11-24.63-24.71-33.04
		c-8-5.79-16.62-10.65-25.8-14.42c-2.46-1.01-4.9-2.07-7.35-3.11c-3.07-1.29-5.89-4.2-4.63-6.77c2.22-4.54,4.92,0.09,7.35,0.98
		c2.47,0.91,4.74,2.49,7.27,3.12c14.75,3.62,28.48,9.79,42.48,15.54c17.48,7.18,24.73,20.22,26.45,37.72
		c0.81,8.31,1.34,16.65,2.03,24.97c0.28,3.46,0.57,7.07,4.1,8.86c11.31,5.75,22.69,11.33,34.59,16.4
		c-17.15-17.26-19.68-39.76-22.94-61.72c-1.04-7.03-5.29-13.47-4.02-20.8c4.19-1.36,4.77,1.87,5.76,4.12
		c1.54,3.53,2.93,7.39,6.69,8.84c15.17,5.83,24.56,18.21,34.84,29.73c4.84,5.42,6.61,11.95,7.76,18.56
		c2.39,13.63-1.13,19.76-15.53,27.82c17.07,4.57,28.25,17.43,43.04,24.3c3.29,1.53,6.45,3.62,12.42,3.9
		c-14.78-17.29-22.25-35.8-22.26-56.9c0-5.63,4.08-13.45,9.68-20.49c3.17,7.04,6.64,13.61,9.14,20.54
		c4.36,12.08,10.27,23.34,17.08,34.12c3.39,5.37,3.94,10.47,1.13,16.05c-0.68,1.35-1.53,2.65-2.04,4.07
		c-2.99,8.55-2.44,10.98,5.54,15.02c19.76,9.97,37.29,23.26,54.33,37.06c2.35,1.9,3.74,1.9,7.47,4.4
		c8.59,3.9,20.64,8.98,31.93,14.77c-2.41-8.19-6.61-14.02-9.66-20.36c-3.62-7.51-7.5-14.88-8.76-23.32
		c-0.91-6.1,0.06-7.73,5.79-7.28c16.9,1.33,36.5,13.67,39.77,30.68c2.38,12.39,8.69,24.73,2.04,37.72
		c-1.49,2.91,0.05,5.35,2.51,6.76c13.05,7.42,24.96,17.2,41.03,18.19c10.01,2.36,30.69,3.78,30.69,3.78l21.89,1.16
		c0,0,26.34,1.19,32,0.35c10.03-1.49,10.48-6.68,16.07-18.16c5.47-24.2,4.43-43-1.72-62.93c-4.85-14.99-5.83-18.71-11.06-39
		c-5.26-15.81-9.34-24.65-11.48-43.44l-2.38-11.66c-0.2-5.25-6.04-16.33-9.99-19.99c-5.27-4.89-7.32-6.11-14.04-7.38
		c-7.85-1.19-28.66-5.32-35.79-6.29c-8.5-1.15-16.91-3.04-26.35-4.79c0.73,4.28,3.32,5.7,5.75,6.99
		c8.82,4.67,16.41,10.9,23.42,17.91c5.65,5.65,11.73,10.78,18.93,14.45c2.74,1.39,5.58,3.03,5.2,6.69
		c-0.33,3.23-3.35,3.99-5.79,4.74c-16.24,5.06-32.51,8.16-48.16-1.75c-11.24-7.12-19.56-17.55-20.1-30.56 M760.92,737.02
		c1.87-3.02,4.41-3.6,7.77-3.09c5.59,0.85,11.22,1.67,16.86,1.87c18.26,0.66,27.1,13.09,34.65,27.23c0.52,0.98,0.74,2.14,1.01,3.24
		c1.02,4.11-0.02,6.75-4.27,6.6c-14.44,0.36-26.32-5.58-37.41-12.8c-6.23-4.05-12.52-8.55-17.02-14.82
		C760.74,742.76,758.88,740.32,760.92,737.02z M288.54,690.65c-9.56,0.12-15.62-6.29-15.53-16.28c0.09-8.71-0.32-17.44,1.24-26.07
		c0.72-3.95,0.77-8.2,5.25-13.27c1.96,11.9,6.11,20.7,11.43,29.1c3.26,5.14,4.51,11.27,5.64,17.19
		C297.79,687.65,294.93,690.57,288.54,690.65z M395.84,644.9c8.69-0.62,19.51,11.49,19.94,20.23c0.23,4.62-1.71,7.22-6.11,8.08
		c-16.04,3.11-31.68-2.52-36.64-15.48c-3.09-8.06-9.83-14.02-14.7-21.46C370.31,643.01,382.42,645.85,395.84,644.9z M706.66,720.49
		c-0.06,4.78-1.45,7.05-4.93,8.91c-11.81,6.29-31.11,0.65-38.03-11.01c-4.7-7.92-8.2-16.44-9.74-25.41
		c-2.16-12.55-9.6-20.15-20.53-25.25c-1-0.47-2.14-0.91-2.39-3.14c2.2-3.46,5.41-2.91,8.25-2.13c11.69,3.17,23.63,5.45,34.87,10.26
		c10.98,4.71,19.04,12.35,24.35,22.9C702.45,703.45,706.76,710.96,706.66,720.49z"/>
	<path class="st0" d="M904.9,796.76c2.97,5.52,3.74,11.31,4.51,17.25c2.06,16.01,7.96,30.62,16.08,45.22
		c3.24-3.86,2.85-7.87,3.32-11.61c0.48-3.76,0.84-7.54,1.4-11.29c4.72-31.47,6.08-63.35,11.52-94.75
		c2.1-12.13,5.55-23.78,11.94-34.21c6.96-11.35,12.09-23.55,18.02-35.38c7.49-14.95,15.82-29.37,26.98-41.95
		c4.3-4.85,5.79-10.07,5.07-16.69c-1.39-12.81-3.47-25.57-3.38-38.53c0.07-10.8-5.24-19.89-11.27-28.05
		c-13.03-17.6-29.11-32-50.04-39.62c-8.04-2.92-16.26-5.43-24.28-8.49c-14.95-5.74-30.57-3.41-45.97-3.58
		c-1.67-0.02-3.35,1.46-4.94,2.21c1.33,4.53,9.7,1.12,3.25,6.64c-21.9,18.3-39.53,21.58-59.07,18.15
		c-9.16-1.61-16.24-8.24-25.4-9.56c-2.3-0.33-2.96-2.38-2.64-4.34c0.51-3.14,3.29-4.77,5.79-4.34c16.23,2.81,31.29-5.16,47.23-4.75
		c0.99,0.03,20.62-1.87,20.62-1.87c34.36-0.92-24.43-4.23-28.79-4.38c-3.83-0.13-7.76-0.27-10.77-2.95
		c-6.81-6.09-14.5-8.8-23.77-8.81c-7.08-0.01-14.4-1.08-20.85-4.68c-4.59-2.57-9.72,1.96-14.98-2.02c7.6-4.55,13.66-11.1,23.53-9.52
		c2.57,0.41,5.3-0.14,7.95-0.36c17.27-1.39,34.53-2.8,54.38-4.42c-20.06-9.2-30.59-23.39-37.28-40.85c-0.8-2.1-1.43-4.39-1.51-6.63
		c-0.24-6.01-3.77-12.93,3.09-17.43c14.02-9.22,18.21-9.35,28.58-1.66c17.09,12.69,24.1,30.55,25.57,51.01
		c0.36,5,2.06,10.5-2.9,15.75c13.32,2.66,25.85,6.07,38.61,6.15c21.85,0.12,42.99,2.85,63.08,11.82c0.53,0.24,1.3-0.07,2.48-0.17
		c0.09-6.96-5.09-10.79-8.92-15.1c-8.11-9.12-6.2-19.81-5.15-30.25c0.36-3.58,5.15-4.84,8.18-2.13c8.47,7.57,17.5,15.01,19.26,27.26
		c1.18,8.28,7.3,16.23,1.61,25.12c-1.33,2.07-5.4,9.47-3.35,11.02c6.94,5.23,19.44,11.67,26.24,17.08
		c5.34,4.24,9.78,6.23,13.4,12.25l0.63,0.87c10.07,9.46,9.77,12.96,10.37,23.49c0.64,11.13,5.86,49.78,3.81,61.52
		c2.99-1.25,10.51-32,10.84-33.95c3.69-22.38,9.77-44.27,14.1-66.48c2.7-13.84,3.7-28.77-2.27-42.61
		c-5.76-13.35-12.46-25.81-28.62-29.43c-3.4-0.76-6.17-4.2-9.28-6.34c-12.81-8.82-26.6-16.23-38.25-26.69
		c-5.25-4.72-14.62-2.89-20.66-1.79c-14.18,2.58-18.23-11.92-27.71-17.84c-2.41-1.51-18.01-10.32-17.11-12.99
		c0.93-2.78,18.58,1.43,21.49,1.44c3.4,0.01,23.15-6.92,32.6,16.58c12.08,2.39,95,57.53,108.26,63.41
		c16.36-50.22-109.73-89.74-111.66-105.44c-10.82,6.44-26.55,7.24-36.86,1.91c-16.6-8.56-18.46-11.44-23.14-29.46
		c-1.42-5.49,0.1-15.5-4.99-24.87c-0.36-4.27-3.21-5.67-5.54-12.08c0,0,18.78,11.92,22.32,14.55c8.98,6.68,23.68,16.03,39.72,37.5
		c-1.28-5.66-22.82-42.66-23.81-47.01c-0.58-2.55-2.06-3.75-4.8-3.8c-12.59-0.23-21.31-7.79-28.51-16.71
		c-12.73-15.78-24.48-20.5-30.26-40.08c-1.05-3.56-5.17-22.15-2.41-24.87c9.79,0.48,26.54,19.79,29.69,21.66
		c6.1,8.02,27.12,0.8,47.66,42.53c-6.26-38.4-38.07-70.36-54.53-73.55c-1.09-1.63,0.85,1.68,0,0c-31.14,3.12-61.66,8.12-91.46,14.86
		c-0.84,5.58-1.78,11.14-4.14,16.39c-0.6,1.32-0.8,3-2.71,3.22c-0.33-0.07-0.87-0.02-0.98-0.21c-2.8-5.21-5.73-10.35-8.67-15.48
		c-5.67,1.42-11.32,2.9-16.95,4.44c3.96,10.83,7.3,21.46,7.14,33.71c-0.25,18.43-9.68,29.96-21.13,40.82
		c-10.47,9.92-13.09,21.3-9.63,34.08c3.17,11.73,0.28,23.48,2.05,35.11c0.15,1.02-0.19,2.39-0.8,3.22
		c-10.07,13.92-10.16,32.44-21.16,45.91c-11.71,37.15-7.87,63.34,22.23,87.95c18.58,15.19,35.44,31.95,51.9,49.2
		c6.51,6.84,11.99,14.9,14.19,24.35c4.97,21.28,15.91,38,35.15,49.07c7.97,4.58,13.76,11.87,20.34,18.14
		c1.64,1.56,3.24,3.15,3.87,5.51c3.37,12.5,7.61,23.96,11.84,36.1c8.51,24.46,4.66,8.78,11.55,36.26c1.2,4.82,2.76,9.45,5.15,13.88
		 M959.47,547.97c1.5-3.15,5.37-2.4,8.11-1.65c2.37,0.64,3.36,3.1,2.41,5.55c-2.24,5.79,1.57,10.05,3.37,14.87
		c6.63,17.75,9.89,35.79,3.08,54.27c-1.88,5.09-2.73,11.67-10.35,11.77c-4.77,0.07-8.37-4.59-10.19-13.36
		c-0.92-4.44-1.22-9-1.81-13.51c-0.36-6.4-1.26-12.64-2.68-18.97C948.31,573.06,953.62,560.27,959.47,547.97z M1030.07,514.57
		c-5.51-1.18-38.47-33.04-40.38-38.76c-1.29-3.85-4.08-7.19-6.12-10.79c-8.23-14.66-10.2-30.33-8.24-49.07
		c17.86,11.41,33.75,21.5,48.36,33.53c3.29,2.71,3.9,6.42,5.35,9.71c3.95,8.91,10.34,16.42,13.02,26.2
		c2.53,9.22-0.04,17.12-2.61,25.27C1038.11,514.92,1034.01,516.06,1030.07,514.57 M912.44,447.82c-2.88,4.49,1.5,11.37-4.97,14.83
		c-6.15,3.29-9.9-1.83-14.09-4.67c-7.19-4.88-11.69-11.78-13.74-20.21c-1.16-4.79-1.98-9.67-3.24-14.43c-0.83-3.17,0-6.11,0.93-8.92
		c2.32-7.04,8.4-9,14.08-4.14C902.83,420.06,907.27,433.89,912.44,447.82z M827.79,320.89c5.53-10.71,11.24-21.34,9.57-36.36
		c16.4,11.58,32.33,20.29,40.93,37.22c7.84,15.43,3.98,32.48-9.46,41.3c-7.47,4.9-16.47,4.76-24.73,4.18
		c-7.49-0.53-13.52-6.58-15.77-13.37C824.79,343.24,822.08,331.93,827.79,320.89z M761.85,286.43
		c6.25-14.91,14.57-29.05,27.75-39.46c2.75-2.17,5.25-4.3,9.02-3.43c0.27,0.74,0.69,1.43,0.77,2.16
		c3.07,28.49,7.26,32.85-16.84,57.18c-5.55,5.61-9.84,12.44-14.92,18.53c-3.25,3.88-5.03,3.31-7.33-1.06
		C754.18,308.71,757.45,296.94,761.85,286.43z M761.48,362.47c0.18-4.94,2.15-9.55,4.62-13.83c1.32-2.29,2.72-4.28,2.32-7.29
		c-0.84-6.48,3.25-8.65,8.86-9.13c0.76-0.07,1.51-0.14,2.26-0.17c12.77-0.45,37.93,15.76,43.16,27.41c2.25,5.01,0.87,9.52-0.3,14.28
		c-1.21,4.9-3.82,7.09-9.01,8.51c-6.72,1.84-11.93,8.08-19.72,7.78C773.5,389.62,760.79,381.13,761.48,362.47z M733.8,420
		c-0.39-2.58,0.58-5.94-1.47-7.53c-2.51-1.96-4.35-3.16-0.91-5.55c2.8-1.94,6.42-4.51,9.02-0.86c5.69,7.93,14.85,11.54,21.39,18.38
		c5.41,5.65,8.64,12.2,10.24,18.44c0.5,7.52-3.37,10.47-10.16,9.05C748.33,449.1,736.1,435.27,733.8,420z M887.43,613.73
		c-1.89,2.46-4.35,2.51-7.16,2.06c-12.22-1.93-24.41-13.25-27.63-25.67c-1.71-6.61-3.61-13.17-3.61-20.09c0-2.51,0.7-4.4,3.52-5.39
		c0.81,0.34,2.28,0.48,2.75,1.24c4.15,6.68,11.44,9.78,16.83,15.02c7.17,6.97,10.84,16.36,16.48,24.41
		C890.51,608.03,889.44,611.12,887.43,613.73z M894.97,589.54c-9.93-9.75-19.75-19.64-26.53-32.2c-3.71-6.87-5.42-14.04-6.03-21.46
		c-0.52-6.19,3.05-8.45,8.48-5.54c22.46,12.01,43.79,25.54,58.24,47.38c4.24,6.42,11.62,11.6,8.88,20.25
		c0.61,1.83,1.17,2.89,1.3,3.99c0.88,7.91-4.68,12.62-11.87,9.6C915.17,606.44,904.38,598.79,894.97,589.54z M912.32,673.48
		c-0.82-13.06,1.55-25.57,6.38-37.68c1.16-2.92,3.43-4.94,5.31-7.31c2.97-3.74,6.3-4.36,9.61-1.07c3.02,3.01,8.11,6.4,3.77,11.23
		c-3.75,4.16-2.35,7.55-0.54,11.29c2.69,5.57,3.62,11.5,4.62,17.52c2.23,13.39-3.11,24.32-10.56,34.72
		c-2.41,3.38-4.3,1.79-6.38-0.17C916.3,694.27,913.01,684.44,912.32,673.48z"/>
	<path class="st0" d="M247.14,713.93c3.1-0.83,3.91-3.42,4.01-6.17c0.19-5.95-1.08-11.4-3.84-16.23c-2.32,6.56-4.54,13.16-6.68,19.8
		C242.2,713.37,244.34,714.68,247.14,713.93z"/>
	<path class="st0" d="M903.65,211.11c-4.18-1.26-7.79-2.34-11.4-3.42c0.02,4.52,3.65,6.41,6.54,8.7
		c4.98,3.93,10.13,7.64,15.37,11.55c2.38-4.04,2.06-8.03,1.81-11.62c-0.64-9.1-0.25-17.58,3.48-26.37
		c-4.11,0.21-8.23,0.48-12.35,0.77C907.2,197.5,906.12,204.3,903.65,211.11z"/>
	<path class="st0" d="M1559.4,728.32c10.15-4.16,20.04-8.97,30.5-12.34c26.19-8.44,51.72-19.1,79.49-21.91
		c-12.17-34.93-26.8-68.63-43.68-100.9c-8.79,0.35-17.57,1.29-26.36,1.34c-11.82,0.07-19.89-7.72-24.91-17.27
		c-3.27-6.21-18.64-21.1-23.57-18.72c-17.45,8.43-37.78,24.62-51.73,38.48c-5.01,4.98-16.47,21.93-20.59,30.56
		c13.55-5.64,46.6-11.01,59.25-12.21c6.53-0.62,13.45-0.91,19.03,1.87c12.75,6.37,26.49,5.62,39.87,7.54
		c2.23,0.32,4.88,0.03,6.64,1.14c7.32,4.61,15.2,3.98,23.19,3.41c3.39-0.24,6.86-0.47,10.2-0.01c3.14,0.45,5.84,2.49,5.97,5.96
		c0.13,3.84-2.17,7.02-5.96,7.08c-10.55,0.2-21.28,3.35-31.63-0.65c-6.88-2.67-13.96-3.65-21.16-3.53
		c-23.52,0.4-47.09-0.46-70.52,2.31c-5.64,0.67-11.45,0.82-12.6,8.72c-0.58,3.96-4.72,4.66-8.26,4.51
		c-11.49-0.5-20.57,5.06-28.71,12.02c-12.99,11.1-25.61,22.63-38.12,34.28c-9.11,8.48-19.39,14.38-31.62,17.01
		c-13.18,2.84-56.31-0.58-68.62,6.91c9.58,3.49,49.32,18.53,57.02,23.34c5.6,3.49,12.01,5.04,18.44,5.21
		c25.45,0.65,51.12,0.82,76-4.31C1504.59,742.46,1532.99,739.14,1559.4,728.32z M1595.25,673.4c5.34,0.05,8.21,3.46,7.4,8.9
		c-0.72,4.87-2.42,9.31-5.44,13.47c-11.25,15.54-27.1,22.28-45.46,24.57c-4.91,0.71-9.89,1.35-12.59-4.44
		c-2.47-5.31-0.79-9.53,3.42-13.06c13.96-11.67,28.52-22.36,46.11-28.03C1590.81,674.14,1593.07,673.38,1595.25,673.4z
		 M1490.93,668.14c2.46-3.65,6.32-5.4,9.71-7.7c12.09-8.22,25.47-13.18,41.77-14.91c1.34-0.18,4.37-0.09,7.32,0.81
		c10.85,3.32,21.71,6.61,32.51,10.11c2.51,0.81,5.01,2.41,4.78,5.61c-0.19,2.63-2.63,3.68-4.7,4.36c-10.06,3.29-20.15,6.5-30.3,9.5
		c-5.43,1.6-11.04,2.63-16.53,4.04c-12.91,3.3-26.1,2.59-39.17,2.38C1488.74,682.22,1486.46,674.76,1490.93,668.14z M1439.06,737.52
		c-1.99,0.83-3.67,0.13-4.91-1.61c-1.58-2.23-2.74-4.49-1.72-7.37c3.79-10.76,22.59-20.53,36.31-18.27
		C1462.69,723.87,1452.13,732.03,1439.06,737.52z"/>
	<path class="st0" d="M1660.72,853.06c11.89-8.97,22.69-15.24,36.43-17.47c2.14-0.35,4.27-0.63,6.38-0.87
		c-2.91-20.27-6.61-40.25-11.07-59.93c-20.77-5.85-36.57-20.05-51.07-38.88c15.46-3.14,29.12-2.09,41.98,2.95
		c-2.35-8.4-4.79-16.76-7.41-25.03c-3.83,0.3-7.7,0.38-11.63,0.18c-15.97-0.84-31.25,1.27-46.53,7.84
		c-27.34,11.75-54.26,24.8-83.16,32.58c-7.65,2.06-15.5,3.55-23.34,4.65c-10.69,1.5-20.6,5.17-30.19,9.76
		c-4.57,2.2-9.28,3.13-14.17,3.8c-1.95,0.27-3.59,1.44-3.93,3.54c-0.34,2.11,0.94,3.49,2.61,4.63c7.53,5.08,14.92,10.35,22.55,15.24
		c7.79,5,11.03,4.76,18.5-0.73c12.57-9.23,25.66-17.18,40.66-22.34c13.2-4.54,25.74-11.1,38.35-17.24c19.15-9.34,37.64-5.35,56.07,2
		c4.41,1.76,7.08,5.03,5.13,9.82c-1.76,4.32-5.57,4.14-9.68,3.15c-4.38-1.05-8.83-1.78-13.43-2.09
		c-12.91-0.88-21.62,7.2-31.43,13.39c10.79-1.3,20.36,2.31,29.8,6.33c5.96,2.54,11.94,4.65,18.51,5.21c3.92,0.33,7.42,2.41,7.36,7.2
		c-0.07,4.68-3.47,6.87-7.4,7.27c-13.53,1.39-26.23,6.78-39.72,8.09c-12.58,1.21-23.53-4.29-34.46-9.45c-1.9-0.9-2.02-2.9-1.8-4.96
		c0.39-3.73,1.93-7.36,1.26-10.8c-13.01-3.09-23.93,1.64-34.42,8.3c-10.96,6.96-11.92,15.02-1.23,21.98
		c15.28,9.94,31.86,17.37,50.18,19.95c11.64,1.64,23.29,2.98,34.76,5.76c11.58,2.8,22.37,7.16,32.23,13.84
		c12.61,8.55,25.56,16.27,40.84,19.41c8.32,1.71,14.61,7.21,21.29,12.03c-0.25-3.68-0.46-7.37-0.76-11.06
		c-0.09-1.13-0.22-2.23-0.31-3.36c-4.09-1.51-8.13-3.25-12.08-5.43C1684.97,866.01,1673.95,858.87,1660.72,853.06z"/>
	<path class="st0" d="M1183.17,842.66c21.23-17.63,45.66-20.01,70.69-12.35c24.19,7.4,47.5,17.59,70.05,29.31
		c4.74,2.46,8.32,6.4,13.25,8.71c17.72,8.32,36.23,10.75,55.12,6.52c9.35-2.09,18.92-4.98,27.12-10.44
		c7.56-5.04,14.67-10.76,22.05-16.07c8.36-6.02,15.97-12.89,22.34-20.94c4.02-5.08,3.23-7.65-2.33-10.96
		c-5.91-3.51-12.36-5.97-19-7.4c-7.2-1.54-12.82,0.83-17.4,7.4c-9.06,13.01-19.32,25.16-28.1,38.41
		c-3.92,5.92-10.27,4.76-11.45-2.09c-1.51-8.8-1.41-17.89-1.84-26.85c-0.13-2.74,1.4-4.97,2.96-7.21
		c5.64-8.06,8.61-14.61,18.32-16.9c2.39-0.56,3.7-1.74,8.22-3.56c10.73-5.43,20.99-12.04,18.89-12.14
		c-11.72-0.54-29.26-12.62-40.97-13.22c-6.05-0.31-27.8-10.74-33.65-12.73c-27.82-9.48-56.71-23.55-87.29-15.67
		c-15.05,3.87-46.17,17.68-59.74,26.44c-22.16,14.3-23.66,56.16-38.77,77.99c1.57-0.74,3.19-1.39,4.72-2.23
		C1178.66,845.43,1181.16,844.33,1183.17,842.66z"/>
	<path class="st0" d="M1534.47,534.68c-1.04,6.22,1.39,8.62,7.45,6.94c6.54-1.82,13.05-3.82,19.46-6.03
		c8.43-2.91,16.58-6.68,25.38-8.29c-4.28-6.47-8.66-12.86-13.13-19.18c-5.23,4.2-11.67,7.21-19.11,7.85
		C1543.93,516.87,1536.14,524.75,1534.47,534.68z"/>
</g>
</svg>
