<?xml version="1.0" encoding="utf-8"?>
<!-- Generator: Adobe Illustrator 27.0.1, SVG Export Plug-In . SVG Version: 6.00 Build 0)  -->
<svg version="1.1" id="Ebene_1" xmlns="http://www.w3.org/2000/svg" xmlns:xlink="http://www.w3.org/1999/xlink" x="0px" y="0px"
	 viewBox="0 0 1920 1920" style="enable-background:new 0 0 1920 1920;" xml:space="preserve">
<style type="text/css">
	.st0{fill:#FFFFFF;}
</style>
<g>
	<g>
		<path class="st0" d="M646.9,1079.3c-25.3,25-61.9,37.6-109.8,37.6c-13.9,0-27.6-1.2-41.1-3.4l-5.8-1c-5-1.3-7.9-3.6-8.7-6.9
			c-1.2-6.9-1.7-23.2-1.7-48.9l3.5-160.1c0-24.7-0.8-43.6-2.3-56.8l-1.2-6.9c-0.8-9.2-3-17.1-6.7-23.7c-3.7-6.6-7.2-10.9-10.7-12.8
			l-4.6-2.5c-2.7-1.3-4-2.8-4-4.4c0-4.9,9.6-10.8,29-17.5s33.4-10.1,42.3-10.1c8.9,0,13.5,2,13.9,5.9c2.7,20.1,4.1,48.8,4.1,86
			L540,972.2c0,51.7,1.7,87.5,5.2,107.2c0.4,4.6,6.5,6.9,18.3,6.9c11.8,0,21.9-2.8,30.4-8.4c8.5-5.6,14.9-13,19.1-22.2
			c7.7-16.8,11.6-35.4,11.6-55.8c0-9.5-1.5-19.9-4.6-31.1c-5.4-21.7-17-32.6-34.8-32.6l-13.3,3c-7,0-10.4-5.5-10.4-16.5
			c0-11,4.7-19.9,14.2-26.7c9.5-6.7,21.5-10.1,36.2-10.1c8.1,0,16.8,2.1,26.1,6.2s17,9.2,23.2,15.3c6.2,6.1,11.7,15.7,16.5,28.7
			c0.8,2.2,1.5,4.6,2.2,7C671,742.9,506.2,583.5,304.1,583.5c-125.1,0-235.9,61.1-304.2,155.1c18.4-1.3,37.8-2.1,58.7-2.1
			c141.6,0,212.4,76.9,212.4,230.6c0,60.1-12.5,115.1-37.4,164.8c-10.1,19-21.8,35.4-35,49.2c-13.3,13.8-30.6,25.3-52.1,34.6
			c-21.5,9.3-45.2,13.9-71.2,13.9c-5.3-0.4-12.1-1.1-20.3-2c-4.9-0.5-11.3-2.1-19-4.3c68.2,69.4,163.1,112.4,268.1,112.4
			c176.9,0,325.1-122.1,365.3-286.6C663.6,1060.2,656.1,1070.3,646.9,1079.3z M471.6,1104.1l2.3,6.4c0,4.3-4.2,6.4-12.8,6.4
			c-29.8,0-46.8-7.1-51-21.2c-0.4-1.7-1.3-2.5-2.6-2.5c-1.4,0-2.6,0.7-3.8,2c-12,13.5-30.5,20.3-55.6,20.3c-13.9,0-28.4-3-43.5-8.9
			c-9.3-3.6-16.8-10-22.6-19c-5.8-9.1-8.7-20.2-8.7-33.3l8.7-108.2c0-22.7-2.7-38.9-8.1-48.4c-1.9-3.6-2.9-5.9-2.9-6.9
			c0-2,1-3.3,2.9-4c6.2-1.6,14.1-2.5,23.8-2.5c37.5,0,56.2,13.2,56.2,39.5c0,8.2-4,27-11.9,56.3c-7.9,29.3-11.9,50.1-11.9,62.5
			c0,12.3,3.2,21.8,9.6,28.4c6.4,6.6,15.3,9.9,26.7,9.9s20.4-3.5,27-10.4c6.6-6.9,10.4-13.8,11.6-20.8l1.7-10.4
			c1.5-11.5,2.3-31.8,2.3-60.8c0-29-1.1-47.3-3.2-55.1c-2.1-7.7-3.2-12.6-3.2-14.6c0-8.2,7.7-14.7,23.2-19.5
			c15.5-4.8,29.4-7.2,41.7-7.2c5.8,0,8.7,2,8.7,5.9c-7,35.6-10.4,80.9-10.4,135.9C465.8,1064.5,467.8,1091.2,471.6,1104.1z"/>
		<path class="st0" d="M139,1091.6c19.1-35.5,28.6-80,28.6-133.6s-9.3-96.3-27.9-128.2S92,781.9,52.2,781.9
			c-9.5,0-17.8,1.4-24.7,4.1c-6.9,2.7-10.3,6.1-10.3,10.2c-6.4,19-9.6,75.6-9.6,169.9s-0.3,147.1-0.8,158.4
			c10.1,13.6,25.7,20.3,46.9,20.3C91.5,1144.8,119.9,1127.1,139,1091.6z"/>
	</g>
	<g>
		<path class="st0" d="M884.1,1038.3c0,14.1-3.2,26.4-9.5,36.9c-6.3,10.5-13.6,18.2-21.7,23.1c-8.1,4.9-17.7,8.9-28.9,11.8
			c-14.6,3.9-27.9,5.9-39.8,5.9c-25,0-45.8-4.2-62.4-12.6c-16.6-8.4-24.8-21.7-24.8-40.1c0-10.8,3.5-19.7,10.4-26.6
			c10.8-10.2,23.7-15.3,38.7-15.3c4.6,0,6.9,1.8,6.9,5.4c0,0.3-0.9,2.9-2.6,7.6c-1.7,4.8-2.6,10.8-2.6,18s3.4,13.6,10.1,19.2
			c6.7,5.6,14.9,8.4,24.5,8.4c9.6,0,17.3-1.4,23.1-4.2c5.8-2.8,9.8-6.3,12.1-10.6c3.5-5.9,5.2-11.5,5.2-16.7
			c0-9.5-5.6-17.7-16.7-24.6c-11.2-6.9-23.5-12.3-37-16.2c-13.5-3.9-25.8-10.5-37-19.7c-11.2-9.2-16.7-20.7-16.7-34.5
			c0-23.6,8.8-41.3,26.3-53.2c17.5-11.8,41.3-17.7,71.3-17.7c13.1,0,26.8,1.6,41.3,4.7c14.4,3.1,21.7,8.4,21.7,15.8
			s-1.5,14.2-4.3,20.4c-2.9,6.2-6.5,9.3-10.7,9.3c-2.3,0-3.8-0.7-4.6-2.2c-0.8-1.5-2.1-3.2-4-5.2c-1.9-2-6.5-4.5-13.8-7.6
			c-7.3-3.1-13.6-4.7-18.8-4.7c-5.2,0-8.7,0.1-10.4,0.2c-1.7,0.2-4.7,0.7-9,1.5c-4.2,0.8-8.1,2-11.5,3.7
			c-8.9,4.3-13.3,10.5-13.3,18.7c0,5.3,1.3,9.1,4,11.6s4.8,4.3,6.3,5.7s4.2,2.9,8.1,4.7c3.8,1.8,6.5,3,8.1,3.7c1.5,0.7,5,2,10.4,4.2
			c5.4,2.1,8.8,3.5,10.4,4.2C863.7,987.7,884.1,1010.1,884.1,1038.3z"/>
		<path class="st0" d="M898.5,913.7l1.7-19.7c0.4-3,3.1-4.4,8.1-4.4h20.2l-2.3-39.4v-2c0-7.5,6.7-14.8,20.2-21.7
			c13.5-6.9,25.8-10.3,36.9-10.3c3.5,0,5.2,1.3,5.2,3.9v0.5c-1.5,8.9-3.1,31.7-4.6,68.4c16.9,0,27.7-0.3,32.3-1c4.6-0.7,7.1-1,7.5-1
			c2.7,0,4,2,4,5.9s-2.1,9-6.3,15c-4.2,6.1-8.9,9.3-13.8,9.6h-24.2c-0.4,11.2-0.6,30-0.6,56.4c0,26.4,0.3,48.2,0.9,65.2
			c0.6,17.1,1.2,29.9,2,38.6c0.8,8.7,1.6,15.7,2.6,20.9c1,5.3,1.7,9,2.3,11.3c0.6,2.3,0.9,3.8,0.9,4.4c0,3.3-2.5,5.1-7.5,5.4
			c-15,0-29.9-1.8-44.7-5.4c-14.8-3.6-22.2-9.8-22.2-18.7c8.1-55.1,12.1-114.4,12.1-177.7c-10.4,0-18.3,0.3-23.7,1h-0.6
			C901.4,919.2,899.3,917.3,898.5,913.7z"/>
		<path class="st0" d="M1211.5,1046.2c0,12.5-3,23.4-8.9,32.7c-6,9.3-12.7,16.2-20.2,20.7c-7.5,4.4-16.3,7.9-26.3,10.6
			c-12.7,3.3-24.8,4.9-36.4,4.9c-32.3,0-56.2-10.3-71.6-31c-15.4-20.7-23.1-47-23.1-79s9.5-60.5,28.6-85.4
			c19.1-24.9,47.6-37.4,85.7-37.4c34.6,0,58.1,10.3,70.4,31c5,7.9,7.5,15.3,7.5,22.4c0,7.1-0.4,12.6-1.2,16.7
			c-0.8,4.1-3.5,10.3-8.1,18.5c-4.6,8.2-10.8,15.6-18.5,22.2c-7.7,6.6-19.8,12.8-36.4,18.7c-16.6,5.9-36,9.8-58.3,11.8
			c-3.1,0-4.6,1.2-4.6,3.4c0,3,1.2,7.3,3.8,13c2.5,5.8,5.3,10.6,8.4,14.5c8.5,9.2,21,13.8,37.5,13.8c16.5,0,30.6-4.6,42.1-13.8
			c6.2-4.9,11.2-11,15-18.2c1.5-2.6,3.6-3.9,6.1-3.9s4.5,1.8,6.1,5.4C1210.7,1041.4,1211.5,1044.2,1211.5,1046.2z M1085.6,980.7
			l0.6,12.3c0,2,1.5,3,4.6,3c12.3-1,23.1-3.7,32.3-8.1s16.2-9.4,20.8-15c9.2-12.1,14.2-22.7,15-31.5l0.6-5.9
			c0-17.7-8.3-26.6-24.8-26.6c-12.3,0-22.3,4.6-30,13.8C1092,937,1085.6,956.4,1085.6,980.7z"/>
		<path class="st0" d="M1234.6,913.7l1.7-19.7c0.4-3,3.1-4.4,8.1-4.4h20.2l-2.3-39.4v-2c0-7.5,6.7-14.8,20.2-21.7
			c13.5-6.9,25.8-10.3,37-10.3c3.5,0,5.2,1.3,5.2,3.9v0.5c-1.5,8.9-3.1,31.7-4.6,68.4c16.9,0,27.7-0.3,32.3-1c4.6-0.7,7.1-1,7.5-1
			c2.7,0,4,2,4,5.9s-2.1,9-6.3,15c-4.2,6.1-8.9,9.3-13.8,9.6h-24.2c-0.4,11.2-0.6,30-0.6,56.4c0,26.4,0.3,48.2,0.9,65.2
			c0.6,17.1,1.2,29.9,2,38.6c0.8,8.7,1.6,15.7,2.6,20.9c1,5.3,1.7,9,2.3,11.3c0.6,2.3,0.9,3.8,0.9,4.4c0,3.3-2.5,5.1-7.5,5.4
			c-15,0-29.9-1.8-44.7-5.4c-14.8-3.6-22.2-9.8-22.2-18.7c8.1-55.1,12.1-114.4,12.1-177.7c-10.4,0-18.3,0.3-23.7,1h-0.6
			C1237.5,919.2,1235.3,917.3,1234.6,913.7z"/>
		<path class="st0" d="M1363.9,913.7l1.7-19.7c0.4-3,3.1-4.4,8.1-4.4h20.2l-2.3-39.4v-2c0-7.5,6.7-14.8,20.2-21.7
			c13.5-6.9,25.8-10.3,37-10.3c3.5,0,5.2,1.3,5.2,3.9v0.5c-1.5,8.9-3.1,31.7-4.6,68.4c16.9,0,27.7-0.3,32.3-1c4.6-0.7,7.1-1,7.5-1
			c2.7,0,4,2,4,5.9s-2.1,9-6.3,15c-4.2,6.1-8.9,9.3-13.8,9.6h-24.2c-0.4,11.2-0.6,30-0.6,56.4c0,26.4,0.3,48.2,0.9,65.2
			c0.6,17.1,1.2,29.9,2,38.6c0.8,8.7,1.6,15.7,2.6,20.9c0.9,5.3,1.7,9,2.3,11.3c0.6,2.3,0.9,3.8,0.9,4.4c0,3.3-2.5,5.1-7.5,5.4
			c-15,0-29.9-1.8-44.7-5.4c-14.8-3.6-22.2-9.8-22.2-18.7c8.1-55.1,12.1-114.4,12.1-177.7c-10.4,0-18.3,0.3-23.7,1h-0.6
			C1366.8,919.2,1364.7,917.3,1363.9,913.7z"/>
		<path class="st0" d="M1676.8,1046.2c0,12.5-3,23.4-8.9,32.7c-6,9.3-12.7,16.2-20.2,20.7c-7.5,4.4-16.3,7.9-26.3,10.6
			c-12.7,3.3-24.8,4.9-36.4,4.9c-32.3,0-56.2-10.3-71.6-31c-15.4-20.7-23.1-47-23.1-79s9.5-60.5,28.6-85.4
			c19.1-24.9,47.6-37.4,85.7-37.4c34.6,0,58.1,10.3,70.4,31c5,7.9,7.5,15.3,7.5,22.4c0,7.1-0.4,12.6-1.2,16.7
			c-0.8,4.1-3.5,10.3-8.1,18.5c-4.6,8.2-10.8,15.6-18.5,22.2c-7.7,6.6-19.8,12.8-36.4,18.7c-16.6,5.9-36,9.8-58.3,11.8
			c-3.1,0-4.6,1.2-4.6,3.4c0,3,1.2,7.3,3.8,13c2.5,5.8,5.3,10.6,8.4,14.5c8.5,9.2,21,13.8,37.5,13.8c16.5,0,30.6-4.6,42.1-13.8
			c6.2-4.9,11.2-11,15-18.2c1.5-2.6,3.6-3.9,6.1-3.9s4.5,1.8,6.1,5.4C1676.1,1041.4,1676.8,1044.2,1676.8,1046.2z M1551,980.7
			l0.6,12.3c0,2,1.5,3,4.6,3c12.3-1,23.1-3.7,32.3-8.1c9.2-4.4,16.2-9.4,20.8-15c9.2-12.1,14.2-22.7,15-31.5l0.6-5.9
			c0-17.7-8.3-26.6-24.8-26.6c-12.3,0-22.3,4.6-30,13.8C1557.3,937,1551,956.4,1551,980.7z"/>
		<path class="st0" d="M1708.6,1109.2c6.9-35.4,10.4-77.9,10.4-127.5c0-49.5-1.7-81.7-5.2-96.5c0-4.3,5.8-6.4,17.3-6.4
			c17.7,0,29.4,5.7,35.2,17.2c0.4,1,1.3,1.5,2.9,1.5c1.5,0,2.7-0.3,3.5-1c11.9-10.5,30.4-15.8,55.4-15.8c25,0,44.8,5.4,59.5,16.2
			c14.6,10.8,21.9,26.6,21.9,47.3c0,12.5-1.3,30.2-3.8,53.2c-2.5,23-3.8,40-3.8,51.2c0,26.6,5.2,45.8,15.6,57.6
			c1.5,1.6,2.3,3.3,2.3,4.9c0,4.3-5.4,6.4-16.2,6.4c-47.7,0-71.6-18-71.6-54.2c0-13.8,3.7-33,11-57.6c7.3-24.6,11-43.3,11-56.1
			c0-26.2-12.7-39.4-38.1-39.4c-12.3,0-21.7,3.1-28,9.3c-6.4,6.2-9.9,13.4-10.7,21.4c-0.8,8-1.2,23.2-1.2,45.5
			c0,34.1,1.3,63.8,4,89.1l1.2,10.8c0,9.2-7,16.3-21.1,21.4c-14.1,5.1-26.2,7.6-36.4,7.6C1713.7,1115.6,1708.6,1113.4,1708.6,1109.2
			z"/>
	</g>
</g>
</svg>
