<?xml version="1.0" encoding="utf-8"?>
<!-- Generator: Adobe Illustrator 27.0.1, SVG Export Plug-In . SVG Version: 6.00 Build 0)  -->
<svg version="1.1" id="Ebene_1" xmlns="http://www.w3.org/2000/svg" xmlns:xlink="http://www.w3.org/1999/xlink" x="0px" y="0px"
	 viewBox="0 0 1920 1500.9" style="enable-background:new 0 0 1920 1500.9;" xml:space="preserve">
<style type="text/css">
	.st0{fill:#FFFFFF;}
</style>
<g>
	<path class="st0" d="M20.2,1293.7c-5.5-0.7-8.2-2.4-8.2-4.9l1.6-6.6c9.1-19.8,13.7-91,13.7-213.7c0-58.6-1.6-95.2-4.7-109.9
		c-3.1-14.6-5.6-24-7.4-28l-2.8-5.5c-1.5-1.5-2.2-3.6-2.2-6.3s2.2-5,6.6-6.9c28.6-11.3,66.1-17,112.6-17
		c97.8,0,146.7,62.3,146.7,186.8c0,48.7-8.6,93.2-25.8,133.5c-7,15.4-15,28.7-24.2,39.8c-9.2,11.2-21.1,20.5-36,28
		c-14.8,7.5-31.2,11.3-49.2,11.3c-3.7-0.4-8.3-0.9-14-1.7c-5.7-0.7-14.1-3.5-25.3-8.2s-18.8-11-22.8-18.7
		C65.4,1284.3,45.8,1293.7,20.2,1293.7z M125.1,931.7c-6.6,0-12.3,1.1-17,3.3s-7.1,4.9-7.1,8.2c-4.4,15.4-6.6,61.2-6.6,137.6
		s-0.2,119.1-0.6,128.3c6.9,11,17.8,16.5,32.4,16.5c26,0,45.6-14.4,58.8-43.1c13.2-28.8,19.8-64.8,19.8-108.2s-6.4-78-19.2-103.8
		C172.7,944.6,152.6,931.7,125.1,931.7z"/>
	<path class="st0" d="M492.6,1043.2c-6.6,39.6-9.9,89.9-9.9,151.1c0,45,1.8,74.7,5.5,89l2.2,7.1c0,4.8-4,7.1-12.1,7.1
		c-28.2,0-44.3-7.9-48.3-23.6c-0.4-1.8-1.2-2.8-2.5-2.8c-1.3,0-2.5,0.7-3.6,2.2c-11.4,15-28.9,22.5-52.7,22.5
		c-13.2,0-26.9-3.3-41.2-9.9c-8.8-4-15.9-11.1-21.4-21.2c-5.5-10.1-8.2-22.4-8.2-37.1l8.2-120.3c0-25.3-2.6-43.2-7.7-53.8
		c-1.8-4-2.8-6.6-2.8-7.7c0-2.2,0.9-3.7,2.8-4.4c5.9-1.8,13.4-2.8,22.5-2.8c35.5,0,53.3,14.7,53.3,43.9c0,9.2-3.8,30-11.3,62.6
		c-7.5,32.6-11.3,55.8-11.3,69.5s3,24.3,9.1,31.6s14.5,11,25.3,11c10.8,0,19.3-3.8,25.5-11.5c6.2-7.7,9.9-15.4,11-23.1l1.6-11.5
		c1.5-12.8,2.2-35.3,2.2-67.6c0-32.2-1-52.6-3-61.2c-2-8.6-3-14-3-16.2c0-9.2,7.3-16.4,22-21.7c14.6-5.3,27.8-8,39.5-8
		C489.9,1036.6,492.6,1038.8,492.6,1043.2z"/>
	<path class="st0" d="M629.9,1098.1l-12.6,3.3c-6.6,0-9.9-6.1-9.9-18.4s4.5-22.2,13.5-29.7c9-7.5,20.4-11.3,34.3-11.3
		c7.7,0,15.9,2.3,24.7,6.9s16.1,10.3,22,17c5.8,6.8,11.1,17.4,15.7,31.9c4.6,14.5,6.9,31.4,6.9,50.8c0,44.7-12,80.9-36,108.8
		c-24,27.8-58.7,41.8-104.1,41.8c-13.2,0-26.2-1.3-39-3.8l-5.5-1.1c-4.8-1.5-7.5-4-8.2-7.7c-1.1-7.7-1.7-25.8-1.7-54.4l3.3-178
		c0-27.5-0.7-48.5-2.2-63.2l-1.1-7.7c-0.7-10.2-2.8-19-6.3-26.4c-3.5-7.3-6.9-12.1-10.2-14.3l-4.4-2.8c-2.6-1.5-3.9-3.1-3.9-4.9
		c0-5.5,9.1-12,27.5-19.5c18.3-7.5,31.7-11.3,40.1-11.3c8.4,0,12.8,2.2,13.2,6.6c2.6,22.3,3.8,54.2,3.8,95.6l-2.8,131.8
		c0,57.5,1.7,97.2,4.9,119.2c0.4,5.1,6.1,7.7,17.3,7.7s20.8-3.1,28.8-9.3c8-6.2,14.1-14.5,18.1-24.7c7.3-18.7,11-39.4,11-62.1
		c0-10.6-1.5-22.2-4.4-34.6C657.8,1110.2,646.8,1098.1,629.9,1098.1z"/>
	<path class="st0" d="M916.1,1212.4c0,15.8-3,29.5-9.1,41.2c-6,11.7-12.9,20.3-20.6,25.8s-16.8,9.9-27.5,13.2
		c-13.9,4.4-26.6,6.6-37.9,6.6c-23.8,0-43.6-4.7-59.3-14c-15.8-9.3-23.6-24.3-23.6-44.8c0-12.1,3.3-22,9.9-29.7
		c10.2-11.3,22.5-17,36.8-17c4.4,0,6.6,2,6.6,6c0,0.4-0.8,3.2-2.5,8.5c-1.7,5.3-2.5,12-2.5,20.1c0,8.1,3.2,15.2,9.6,21.4
		c6.4,6.2,14.2,9.3,23.3,9.3c9.2,0,16.5-1.6,22-4.7c5.5-3.1,9.3-7.1,11.5-11.8c3.3-6.6,4.9-12.8,4.9-18.7c0-10.6-5.3-19.8-15.9-27.5
		c-10.6-7.7-22.3-13.7-35.2-18.1c-12.8-4.4-24.5-11.7-35.2-22c-10.6-10.2-15.9-23.1-15.9-38.4c0-26.4,8.3-46.1,25-59.3
		c16.7-13.2,39.3-19.8,67.8-19.8c12.5,0,25.5,1.7,39.3,5.2c13.7,3.5,20.6,9.3,20.6,17.6s-1.4,15.8-4.1,22.8s-6.1,10.4-10.2,10.4
		c-2.2,0-3.7-0.8-4.4-2.5c-0.7-1.7-2-3.6-3.8-5.8c-1.8-2.2-6.2-5-13.2-8.5c-7-3.5-12.9-5.2-17.8-5.2s-8.2,0.1-9.9,0.3
		c-1.7,0.2-4.5,0.7-8.5,1.7c-4,0.9-7.7,2.3-11,4.1c-8.4,4.8-12.6,11.7-12.6,20.9c0,5.9,1.3,10.2,3.8,12.9s4.6,4.9,6,6.3
		c1.5,1.5,4,3.2,7.7,5.2c3.7,2,6.2,3.4,7.7,4.1c1.5,0.7,4.8,2.3,9.9,4.7c5.1,2.4,8.4,3.9,9.9,4.7
		C896.7,1156,916.1,1180.9,916.1,1212.4z"/>
	<path class="st0" d="M929.9,1073.4l1.7-22c0.4-3.3,2.9-4.9,7.7-4.9h19.2l-2.2-44v-2.2c0-8.4,6.4-16.5,19.2-24.2
		c12.8-7.7,24.5-11.5,35.2-11.5c3.3,0,4.9,1.5,4.9,4.4v0.5c-1.5,9.9-2.9,35.3-4.4,76.4c16.1,0,26.4-0.4,30.8-1.1
		c4.4-0.7,6.8-1.1,7.1-1.1c2.6,0,3.8,2.2,3.8,6.6c0,4.4-2,10-6,16.8c-4,6.8-8.4,10.3-13.2,10.7h-23.1c-0.4,12.4-0.5,33.4-0.5,62.9
		s0.3,53.8,0.8,72.8c0.5,19.1,1.2,33.4,1.9,43.1c0.7,9.7,1.5,17.5,2.5,23.3c0.9,5.9,1.7,10.1,2.2,12.6s0.8,4.2,0.8,4.9
		c0,3.7-2.4,5.7-7.1,6c-14.3,0-28.5-2-42.6-6c-14.1-4-21.2-11-21.2-20.9c7.7-61.5,11.5-127.6,11.5-198.3c-9.9,0-17.4,0.4-22.5,1.1
		h-0.5C932.6,1079.4,930.6,1077.4,929.9,1073.4z"/>
	<path class="st0" d="M1227.6,1221.2c0,13.9-2.8,26.1-8.5,36.5c-5.7,10.4-12.1,18.1-19.2,23.1s-15.5,8.9-25,11.8
		c-12.1,3.7-23.6,5.5-34.6,5.5c-30.8,0-53.5-11.5-68.1-34.6s-22-52.5-22-88.2c0-35.7,9.1-67.5,27.2-95.3
		c18.1-27.8,45.3-41.8,81.6-41.8c33,0,55.3,11.5,67,34.6c4.8,8.8,7.1,17.1,7.1,25c0,7.9-0.4,14.1-1.1,18.7
		c-0.7,4.6-3.3,11.4-7.7,20.6c-4.4,9.2-10.3,17.4-17.6,24.7c-7.3,7.3-18.9,14.3-34.6,20.9c-15.8,6.6-34.2,11-55.5,13.2
		c-2.9,0-4.4,1.3-4.4,3.8c0,3.3,1.2,8.2,3.6,14.6c2.4,6.4,5,11.8,8,16.2c8.1,10.3,20,15.4,35.7,15.4c15.7,0,29.1-5.1,40.1-15.4
		c5.8-5.5,10.6-12.3,14.3-20.3c1.5-2.9,3.4-4.4,5.8-4.4c2.4,0,4.3,2,5.8,6C1226.9,1215.9,1227.6,1219,1227.6,1221.2z M1107.8,1148.1
		l0.6,13.7c0,2.2,1.5,3.3,4.4,3.3c11.7-1.1,22-4.1,30.8-9.1c8.8-4.9,15.4-10.5,19.8-16.8c8.8-13.5,13.5-25.3,14.3-35.2l0.6-6.6
		c0-19.8-7.9-29.7-23.6-29.7c-11.7,0-21.2,5.1-28.6,15.4C1113.9,1099.4,1107.8,1121,1107.8,1148.1z"/>
	<path class="st0" d="M1249.6,1073.4l1.7-22c0.4-3.3,2.9-4.9,7.7-4.9h19.2l-2.2-44v-2.2c0-8.4,6.4-16.5,19.2-24.2
		c12.8-7.7,24.5-11.5,35.2-11.5c3.3,0,4.9,1.5,4.9,4.4v0.5c-1.5,9.9-2.9,35.3-4.4,76.4c16.1,0,26.4-0.4,30.8-1.1
		c4.4-0.7,6.8-1.1,7.1-1.1c2.6,0,3.8,2.2,3.8,6.6c0,4.4-2,10-6,16.8c-4,6.8-8.4,10.3-13.2,10.7h-23.1c-0.4,12.4-0.6,33.4-0.6,62.9
		s0.3,53.8,0.8,72.8c0.6,19.1,1.2,33.4,1.9,43.1c0.7,9.7,1.6,17.5,2.5,23.3c0.9,5.9,1.7,10.1,2.2,12.6c0.6,2.6,0.8,4.2,0.8,4.9
		c0,3.7-2.4,5.7-7.1,6c-14.3,0-28.5-2-42.6-6c-14.1-4-21.2-11-21.2-20.9c7.7-61.5,11.5-127.6,11.5-198.3c-9.9,0-17.4,0.4-22.5,1.1
		h-0.6C1252.3,1079.4,1250.3,1077.4,1249.6,1073.4z"/>
	<path class="st0" d="M1386.9,1073.4l1.7-22c0.4-3.3,2.9-4.9,7.7-4.9h19.2l-2.2-44v-2.2c0-8.4,6.4-16.5,19.2-24.2
		c12.8-7.7,24.5-11.5,35.2-11.5c3.3,0,4.9,1.5,4.9,4.4v0.5c-1.5,9.9-2.9,35.3-4.4,76.4c16.1,0,26.4-0.4,30.8-1.1
		c4.4-0.7,6.8-1.1,7.1-1.1c2.6,0,3.8,2.2,3.8,6.6c0,4.4-2,10-6,16.8c-4,6.8-8.4,10.3-13.2,10.7h-23.1c-0.4,12.4-0.6,33.4-0.6,62.9
		s0.3,53.8,0.8,72.8c0.6,19.1,1.2,33.4,1.9,43.1c0.7,9.7,1.6,17.5,2.5,23.3c0.9,5.9,1.7,10.1,2.2,12.6c0.6,2.6,0.8,4.2,0.8,4.9
		c0,3.7-2.4,5.7-7.1,6c-14.3,0-28.5-2-42.6-6c-14.1-4-21.2-11-21.2-20.9c7.7-61.5,11.5-127.6,11.5-198.3c-9.9,0-17.4,0.4-22.5,1.1
		h-0.6C1389.7,1079.4,1387.6,1077.4,1386.9,1073.4z"/>
	<path class="st0" d="M1684.6,1221.2c0,13.9-2.8,26.1-8.5,36.5c-5.7,10.4-12.1,18.1-19.2,23.1s-15.5,8.9-25,11.8
		c-12.1,3.7-23.6,5.5-34.6,5.5c-30.8,0-53.5-11.5-68.1-34.6s-22-52.5-22-88.2c0-35.7,9.1-67.5,27.2-95.3
		c18.1-27.8,45.3-41.8,81.6-41.8c33,0,55.3,11.5,67,34.6c4.8,8.8,7.1,17.1,7.1,25c0,7.9-0.4,14.1-1.1,18.7
		c-0.7,4.6-3.3,11.4-7.7,20.6c-4.4,9.2-10.3,17.4-17.6,24.7c-7.3,7.3-18.9,14.3-34.6,20.9c-15.8,6.6-34.2,11-55.5,13.2
		c-2.9,0-4.4,1.3-4.4,3.8c0,3.3,1.2,8.2,3.6,14.6c2.4,6.4,5,11.8,8,16.2c8.1,10.3,20,15.4,35.7,15.4c15.7,0,29.1-5.1,40.1-15.4
		c5.8-5.5,10.6-12.3,14.3-20.3c1.5-2.9,3.4-4.4,5.8-4.4c2.4,0,4.3,2,5.8,6C1683.9,1215.9,1684.6,1219,1684.6,1221.2z M1564.9,1148.1
		l0.6,13.7c0,2.2,1.5,3.3,4.4,3.3c11.7-1.1,22-4.1,30.8-9.1c8.8-4.9,15.4-10.5,19.8-16.8c8.8-13.5,13.5-25.3,14.3-35.2l0.6-6.6
		c0-19.8-7.9-29.7-23.6-29.7c-11.7,0-21.2,5.1-28.6,15.4C1570.9,1099.4,1564.9,1121,1564.9,1148.1z"/>
	<path class="st0" d="M1714.8,1291.5c6.6-39.6,9.9-87,9.9-142.3c0-55.3-1.7-91.2-4.9-107.7c0-4.8,5.5-7.1,16.5-7.1
		c16.8,0,28,6.4,33.5,19.2c0.4,1.1,1.3,1.7,2.8,1.7c1.5,0,2.6-0.4,3.3-1.1c11.3-11.7,28.9-17.6,52.7-17.6c23.8,0,42.7,6,56.6,18.1
		c13.9,12.1,20.9,29.7,20.9,52.7c0,13.9-1.2,33.7-3.6,59.3c-2.4,25.6-3.6,44.7-3.6,57.1c0,29.7,4.9,51.1,14.8,64.3
		c1.5,1.8,2.2,3.7,2.2,5.5c0,4.8-5.1,7.1-15.4,7.1c-45.4,0-68.1-20.1-68.1-60.4c0-15.4,3.5-36.8,10.4-64.3
		c6.9-27.5,10.4-48.3,10.4-62.6c0-29.3-12.1-43.9-36.3-43.9c-11.7,0-20.6,3.5-26.6,10.4c-6,7-9.4,14.9-10.2,23.9
		c-0.7,9-1.1,25.9-1.1,50.8c0,38.1,1.3,71.2,3.8,99.4l1.1,12.1c0,10.3-6.7,18.2-20.1,23.9c-13.4,5.7-24.9,8.5-34.6,8.5
		C1719.7,1298.6,1714.8,1296.2,1714.8,1291.5z"/>
</g>
<g>
	<path class="st0" d="M1095.4,516.1c-6.5,6.2-20.9,109.1-21.7,118.1c-4,48-26.9,60.6-33.2,71.6l0,0c-1,4.6-42.6,55.5-39.9,60
		c3.5,5.6,56.5-25.8,63.3-32.5c8.9-10,10.5-16.2,19.3-17.9c17.5-3.3,31-12.7,42.2-26c7.6-9,15.8-17.5,22.8-27.1
		c-6.1,12.7-11.4,25.7-20.4,36.6c-6.6,8.1-13.7,15.7-22.8,21.1c-4.3,2.6-8.6,5.5-11.5,9.7c-9.4,13.4-23.1,21.4-36.8,29.2
		c-20.5,11.8-38.7,26-51.3,46.5c-8.7,14.3-15.9,28.8-12.9,46.5c1.9,11.2,0.2,22.8,3.4,34.1c4,14.6,10.1,28.3,16.2,42
		c2.1,4.8,6.5,4.3,10,2.7c19.7-9,28.4-23.3,27.8-42.9c-0.1-2.9-0.3-5.7,0.4-8.6c5.6-20.4,7-41.7,12.2-62.2c1.2-4.9,2.5-9.8,4.6-14.3
		c5.4-11.4,9.1-23.4,13.2-35.3c7.7-21.7,20-39.1,41.4-50.1c11.6-6,22.2-14.3,30-25.7c6.5-9.5,14.6-17.5,24-24.4
		c15.7-11.5,29.7-25,43-39.1c1-1,1.8-2.2,2.8-3.3c11.9-12.7,57.8-40,74.7-43.6c13-2.7,26.4-0.9,39.6-0.6c5.1,0.1,10,0.5,14.9-3
		l3.6-1.4l4.2-0.5c9.8-3.6,15.1-23.6,25.8-23.2c11.8,0.4,20.6,7.6,31.8,11.9c-5.5,6.7-13.3,6.2-19.2,9.4c-1.8,1-4.5,4.8-4.5,4.8
		s0,0.7-3.3,0.7c-3.3,0.1-11.4-4.8-16.4-4.3c-4.3,0.4-5.5,4.3-8.5,8.8c-4.9,7.4-14,9.9-22.8,9.8c-9.4-0.1-18.5,1.9-27.7,2.3
		c-8.2,0.3-16.4,3.6-22.7,8.9c-19.6,16.9-39.5,33.4-57.4,52.1c-8.9,9.4-18.3,18.3-27.8,27c-1.6,1.5-3.6,2.6-4.7,4.4
		c-1.7,2.5-1.4,4.9,2.2,5.3c2.1,0.2,4.3-0.1,6.5-0.2c15-0.8,29.9-2.9,45.1-2.3c9.4,0.4,19-2.7,28.3-5c6.4-1.6,12.8-2.7,19.2-1.7
		c15.1,2.4,29-3.3,43.4-5.5c2.1-0.3,4.1-1.4,6.2-1.9c3.8-1,7.4-0.4,9,3.6c1.7,4.3-1.1,6.8-4.7,8.3c-3.6,1.5-7.3,3.2-11.1,4
		c-23.9,4.7-47.9,9-72.2,11.2c-22.5,2.1-45.1,3.3-67.7,4.6c-11.2,0.6-22,2.9-32.7,5.4c-10,2.3-17.7,9.1-25.5,15.3
		c-12.2,9.8-18.9,24-27.8,36.3c-3.3,4.6-3.7,11.5-4.7,17.5c-1.9,11.1-5.4,21.5-9.6,31.9c-7,17.1-10.7,35-11.3,53.5
		c-0.4,12.1,5.2,22.8,9.7,34.1c4.8-11.9,11.1-22.7,16.3-34.1c18-40.3,43.5-74.7,78.6-101.9c14.3-11.1,30.7-17,47.5-21.6
		c10.5-2.9,21.9-2.7,32.8-5c12.3-2.6,22.4-6.6,27.5-19.3c5.4-13.5,15.9-20.8,30.4-22.6c3.5-0.4,6.8-2.1,10.3-2.9
		c3.3-0.8,6.6-0.7,8.5,2.8c2,3.6,0.3,6.2-2.6,8.2c-4.4,3-6.8,7.4-8.5,12.2c-2.4,6.8-6.3,12.7-10.8,19.2c8.6,1,15-3.9,22.3-4.6
		c3.4-0.3,4.6-3.8,5.6-7.1c3.5-11.6,8.4-23,10.6-34.8c2.9-15.3,12.4-24.4,24.8-31.7c3-1.7,6.1-2.4,8.9,0.3c2.5,2.3,2.3,5.1,0.9,7.9
		c-0.9,1.9-1.9,3.9-3.1,5.7c-6.1,8.9-7.3,18.5-4.5,29.4c5.2-1.6,8-5.8,11.1-9.6c8.5-10.7,16.8-21.5,25.1-32.4
		c16-20.9,34.4-39.1,57.2-52.6c4.3-2.6,7.1-5.1,6.5-10.9c-2.4-21.7,6.4-39.3,18.9-56.6c2.5-3.5,5.2-6.6,8-9.4
		c-4.5-5.7-9-11.3-13.7-16.8c-1.2,4.1-2.1,8.4-2.7,12.7c-0.3,2.1-0.7,4.2-1.2,6.3c-1.9,7.5-11.9,16.6-19.3,17.6
		c-0.7,0.1-1.4,0.1-2.1-0.1c-5.6-1.4-16.1-16.7-15.3-22.8c2-15.3,8.3-27.9,19.9-37.3c-2.7-2.9-5.4-5.8-8.2-8.7
		c-1.7,5-3.8,9.5-5.9,12.8c-6.5,9.8-12.7,19.9-18.7,30.1c-3.7,6.4-8.8,11.2-14.6,15.5c-3.3,2.4-6.6,2.8-9.6-0.4
		c-2.8-2.9-2-6.2,0.2-8.8c5.2-5.8,6.1-12.7,6.1-20c0-2.8,0.5-5.9,1.9-8.3c7.4-13,14-26.7,24.7-37.2c-10.4-10.3-21.2-20.2-32.3-29.9
		c-1.6,0.4-3.3,0.7-4.9,1.1c-2.6-0.4-6,2-7.7-1.7c-1.3-3,0.5-5.5,2.3-7.8c0.1-0.1,0.1-0.1,0.2-0.2c-16.1-13.5-32.7-26.3-50-38.4
		c-1.4,0.7-2.8,1.4-4.3,1.9c-5.8,2-11.5,1-13.4-2.6c-1.7-3.2-1.6-7.6,0.2-11.1c-26.6-17.5-54.4-33.1-83.2-47c-2.8,1.1-5.6,2-8.6,2.6
		c-4.6,0.9-6-0.9-7.3-3.6c-1.2-2.5-2.1-5.1-3.1-7.7c-8.4-3.7-16.9-7.3-25.5-10.7c-4.2,6.9-10.3,11.4-18.2,14
		c-7,2.3-6.9,2.3-9.1,10.2c-10.4-5.5-10-5.5-9-15.6c0.8-7.2,2.9-13.8,6-19.9c-17.8-6.2-35.9-11.6-54.3-16.4
		c-1.9,2.8-3.7,5.6-5.5,8.4c-12.1,18.6-21.4,38.3-27.2,60.1c-5.8,21.7-9.5,43.3-9.2,65.7c0.1,8.2,3.4,16,1.6,26
		c8-6.7,14.4-13.1,22.3-17.8c2.5-1.5,2.5-7.1,3.9-10.7c7.5-19.7,21.1-33.5,41.2-43c2.3,19.4-8.9,31.3-20.4,43.9
		c9.8,0.9,18.9,1.5,27.9,2.6c15.9,2,32,3.3,47.4,8c16.7,5.1,33.9,4.8,51,6.1c6.6,0.5,13.4,1.7,20.2-0.2c2-0.5,5.9-0.9,7.8,3.1
		c-20.2,6.8-40.1,14.2-62.9,14.7c4.7,8.9,12,12.4,18.8,16.8c6.6,4.3,12.7,9.3,19.4,14.2c-6.5,6.4-11,14.6-17.9,20.9
		c-4,3.7-7.9,4.7-12.7,2.4c-15.2-7.1-25.9-17.6-27.6-35.4c-2-20.8-2.5-22.1-23.1-25c-14.1-2-28.8-4.5-42.8-1.6
		c-15.9,3.3-32.9,7-42.3,22.6 M1209.6,731.4c-9,6.5-18,13.2-27.8,18.5c-10.9,5.8-22.9,5.2-34.6,2c-5.7-1.6-6.6-6.6-2.3-11.9
		c10.5-13,22.8-23,41.2-22.4c7.3-2.1,14.6-0.5,21.7,2.4C1214.9,722.9,1215.7,727,1209.6,731.4z M1444.5,614.3
		c2.2-9.1,2.9-18.2,2.5-27.6c-0.7-16.3,8.4-28.3,19.1-39.4c1.6-1.7,3.7-2.6,5.6-0.6c7.1,7.7,17.4,13.7,15.4,24.7
		c1.4,14.4-2.4,24-13.2,31.3c-7.9,5.4-15.3,11.8-21.7,19.2c-1.4,1.6-3,3.4-5.4,1.9c-1.9-1.2-3-3.1-2.9-5.4
		C1443.8,617.1,1444.1,615.6,1444.5,614.3z M1034.9,852.7c-3.4,4.6-6.9,9.2-10.4,13.7c-4.7,6.1-8.2,6.6-14.6,1.9
		c-11-8.1-16-18.2-13.2-32.5c2.6-13.5,10-23.6,18.2-33.5c3-3.6,6.6-6.6,9.6-10.1c2.5-2.8,5.1-5.2,9.2-4c4.2,1.3,5,4.7,5.2,8.5
		c0.1,1.8,0.3,3.6,0.2,2.9c0.1,6.8,0.5,11.1,2.3,15.1C1048.3,829,1043.3,841.1,1034.9,852.7z M1129.7,468.3
		c0.7-7.2,5.5-10.8,13.5-10.3c21.6,1.3,40.2,8.7,55,25c3.8,4.2,8.8,7.3,13.1,11.1c2.5,2.2,4.5,4.9,3.1,8.5c-1.4,3.3-4.3,4.3-7.7,5.1
		c-5.6,1.3-11.1-2.6-18.5,0.1c13.4,5.2,22.3,13.8,30.9,22.8c3.5,3.7,6.4,7.8,8.1,12.6c2.5,6.8,0.6,9.8-6.3,11.8
		c-3.3,1-6.5,0.8-9.4-0.4c-20.2-8.4-37.9-20.2-49.9-39.1c-1.4-2.1-3.2-4.2-1.7-6.8c1.6-2.8,4.1-3.6,7.4-2.8
		c4.8,1.2,9.7,2.3,15.5,1.3c-9.2-3.6-17.7-5.8-26.9-6.2C1139,500.4,1128.5,480.5,1129.7,468.3z M1122.9,655.6
		c-3.4,0.5-5.7-0.9-5-4.8c2-10.9,3.3-22,6.5-32.6c2.3-7.5,8-13.3,16.3-16.8c1.5,8.5,2.5,16.5,4.5,24.4
		C1147.7,635.4,1132.7,654.1,1122.9,655.6z M1137.8,543.5c-4.4-6.9-7.7-14.5-12.7-21.1c-3.6-4.7-1.2-9.9,4-10.5
		c1.8-0.2,3.5,0.3,5.2,1c2.6,1.2,5.2,2.4,8,3.1c8.8,2.5,16.9,5.2,20.2,15.4c1.2,3.7,5.3,6.7,8.4,9.6c3.3,3.1,4.3,5.6-0.3,8.3
		c-1.8,1.1-3.5,2.5-5.1,3.9c-10.4,8.2-11.3,8.2-20.9-1.4C1142.1,549.3,1139.7,546.5,1137.8,543.5z M1179.5,573.5
		c6.7,20.3,1.7,40.2-4,59.9c-1.6,5.4-4.9,6-10.1,3.3c-15.1-8.1-21.9-28.2-14.5-43.5c2.5-5.2,4.8-10.3,6.1-16
		c2.4-10.5,9.8-17.2,18.4-22.9c1.2-0.8,2.6-1.2,4.1-0.6c0.6,0.3,1.1,0.8,2.4,1.9C1175.7,560.7,1177.2,566.5,1179.5,573.5z
		 M1228.9,601.5c-9.2,12.4-20.8,22.1-34.6,32.7c1.5-18.6,2.3-35,10.9-49.9c3-5.2,9.2-6.4,13-10.8c4.8-5.7,11.8-8.8,18.5-13.7
		C1240,575.8,1237.9,589.3,1228.9,601.5z M1341.1,407.3c15.5-3.7,31-4.6,46.4,0.6c3.5,1.2,8.3,2.7,7.5,6.2c-0.8,3.4-2.1,7.9-6.5,10
		c-10.4,4.8-21.1,8.6-32.4,10.6c-9.5,0.6-23.3-7.9-26.9-16.5c-1.2-2.8-0.3-5,2.2-6.3C1334.6,410.1,1337.7,408.1,1341.1,407.3z
		 M1159.2,353.5c-3.3,2-7.4,2.8-9.1,6.9c-1.3,3.1-3.6,1.2-5.4,0.9c-3-0.5-2.7-2.6-2.4-4.9c2.4-18.2,8.7-34.7,20.9-48.7
		c3.5-4,7.6-6.3,10.9-7.1c4.3-0.1,3.9,1,8.5,2.1c-1.8,2.8-6.6,5.6-8.8,7.6c-3.1,2.8-3.4,5.9-3.7,10.1c-0.2,3.9,4.6,7.8,4,11.7
		C1172.6,341.7,1167.2,348.5,1159.2,353.5z M1209.2,409.1c-2.1,1.9-4.9,0.7-7.8,1.6c-4-0.3-8.7-0.5-13.2-1c-3.6-0.4-5.8-2.9-6.6-6.3
		c-1.9-8.1-1.5-15.7,5.1-21.8c9.4-8.7,20.3-14.7,32.8-17.6c9.7-2.3,19.8-3.1,28.9-8.1c3.7-2,7.8-2,10.4,2.3c2.1,3.5-0.1,6.1-2.5,8.5
		c-9.1,9.2-18.4,18.1-27.2,27.5C1223.2,400.5,1215.2,403.4,1209.2,409.1z M1273.1,421.5c-1.9,1-3.8,2.1-5.7,3
		c-10.9,4.8-15.3,2.2-16.2-10.1c-0.8-11.8,2.4-21.6,13.3-28.5c9.6-6.1,18.9-11.9,30.5-10.3c7.9-1.5,15.4,0,22.9,0.4
		c2.1,0.1,4.4,0.6,6.1,1.7c4.6,2.7,4.7,7.2,0.2,10.2c-4.7,3.2-9.8,6-14.7,8.9C1296.9,404.3,1286.2,414.7,1273.1,421.5z
		 M1285.7,560.1c-7.1,7.6-16.7,12-25.1,18c-4,2.8-5.8-0.6-7.6-4.4c-10.1-21.1-3.9-40.1,8.2-57.5c7.7-11.1,17.6-20.7,26.6-30.8
		c1.5-1.7,3-4.4,6.1-2.4c2.5,1.6,2.3,4.3,2.9,7.3c-0.4,1.2-1.3,2.8-1.4,4.5c-0.3,6.7-0.9,13.1,0.1,20.1
		C1297.7,530.8,1297.8,547.2,1285.7,560.1z M1344.4,525c-2.8,0.6-4.3,2.7-4.6,5.3c-0.5,4.8-3.7,8.5-5,13c-4,14.5-16.3,20-28.3,25.4
		c-5.8,2.6-10.1-0.8-10.2-6.8c-0.2-20.5,19.8-42,40.3-43.5c2.1,0.1,4.3,0.2,6.4,0.4c2.1,0.2,4.9-0.3,5.4,2.3
		C1349.1,523.8,1346.6,524.5,1344.4,525z M1348.6,476.6c-3.4-7.8-10.6-8.9-16.5-7.7c-16.5,3.3-28-5.5-39.7-14.3
		c-1.7-1.3-3.5-2.8-2.9-5.3c0.5-2.2,2.7-2.1,4.4-2.4c6.7-1.4,13.1-3.5,20.1-3.7c13.9-0.4,29.3,5.2,34.1,23.3
		C1348.7,469.7,1349.8,472.7,1348.6,476.6z M1357.7,509.9c5.9-15,12.2-29.8,26.6-39c0.9-0.6,2.3-1.1,2.5-1.9
		c3.6-12.5,14.6-11.1,23.9-13c0.1,0.5,0.4,1.1,0.3,1.2c-9.1,7.2-12,17.1-14.6,28.1c-3.5,14.5-13.1,25-28.1,29.7
		c-2.1,0.6-4.1,1.6-6.2,1.3C1358.7,515.8,1356,514.3,1357.7,509.9z M1404,528.6c-7,8.4-17.1,12.4-26.7,17c-3.7,1.8-8.5,1.3-10.9-1.9
		c-2.3-3-2.3-7.5,0.1-11c2.4-3.5,4.7-7.3,7.8-10.2c9.3-8.5,20-15,32.1-18.8c10.8-3.4,13.6-1.3,15.9,10c0.2,0.9,0.8,1.8,1.7,3.9
		C1414.8,518.3,1409.1,522.6,1404,528.6z M1339,643.8c-0.7-3-2.6-4.7-5.4-3.2c-8.7,4.5-62.1,3.6-71.4,7c2.5,3.6,50.1,5.1,52.9,7.1
		c6,4.2,5.8,10.1-0.9,13.2c-7.1,3.3-14.3,6.6-21.7,9.3c-15.6,5.8-36.7-0.7-47.5-14.4c-3.3-4.2-1.8-8.9,3.8-10.6
		c5.8-1.7,11.8-2.8,17.8-4.1c4.9-1,7.3-3.4,9.4-8.6c5-12.5,16.3-19.3,27.7-25.5c11.9-6.5,23.9-6.2,36.1-1.7
		c8.9,3.2-5.8,22.3-7.5,30.7c13,2,42.2-14.6,53.9-9.6c2,0.8,4.1,1.6,5.7,2.9c2.4,2.1,1.6,3-0.4,6.1c-4.1,6.1-9.2,6.8-15.2,7.5
		c-6.6,0.8-13,3.6-20,1.5"/>
	<path class="st0" d="M534.5,397.9c22.6,37,39.3,77.1,57,116.9c-0.4-4.5-0.7-8.9-1.1-13.4c-0.6-7.5-2-14.9-1.1-22.5
		c0.4-3.7-0.8-7.9-2.3-11.5c-8.5-20.7-7.4-42.2-5.8-63.7c0.7-8.7,1-17.6,4-26.1c1.7,8.6,2.7,16.9,2.1,25.8
		c-0.7,10.3,0.9,20.6,2.6,31c2.4,14.2,9.6,27,10.2,41.6c0.2,3.8,1.3,8,3.1,11.3c7.3,13,7.5,27.4,8.5,41.6c0.4,5.7-0.5,11.5,0.3,17.2
		c1.7,13-1.2,25.6-3.2,38.2c-1,6.4-0.5,12.9,0.4,19.3c0.5,3.7,1.3,7.9,4.5,9.5c12.8,6.6,23.2,17.8,38.8,19.2
		c10.3,0.9,3.2,14.6,13.4,16.3c11.7,2,25.2,4.4,37.1,3.6c11.8,1.2,22.5,4.1,31,4.8c16.4,1.3,56.9,15.6,73.8,13.4
		c-1.4-5.4-21.1-35.3-23.6-39.4c-2.4-4-5.5-7.5-8-11.5c-5.5-8.6-12.7-15.4-22.7-23c5.6,11.6,2.6,21.9,4.6,32.3
		c-15.3,1.1-27.4-4.8-38.5-13.5c-3.4-2.6-6.6-5.6-10.3-7.8c-3.6-2.2-6.9-4.2-5.2-9.1c1.7-4.9,5.7-7,10.5-8.1
		c2.9-0.6,5.3,2.6,8.7,0.6c-9-6.8-18.7-12.4-29-15.7c-22.4-7.2-39-22.2-54.9-38.4c-11.5-11.6-15.1-25.5-13.3-41.2
		c1.2-10,2.9-19.8,4.3-29.8c0.2-1.6,0.6-2.9,2.4-2.8c0.9,0.1,2.1,0.9,2.4,1.7c1.5,3.6,2.8,7.3,4.1,11.1c-0.2,13.8-5.4,21.9-0.4,31.8
		c9.7,19.3,8,23.7,51.2,42.1c3.4,0.7,42.5,18.8,45.6,17.4c-0.7-8.8-27.5-28.5-31.1-51.5c-2.6-14-2-27.9-0.9-41.8
		c0.6-7.5,0.7-15,1.2-22.5c0.3-4.1,1.5-5.8,4.7-1.4c1.3,1.8,2.7,0.4,3.1-0.9c3.5-10.6,11.3-19.3,14.7-29.5c3.8-11.3,7.2-23.4,7-35.6
		c-0.4-23.2,0.6-46.1,4.6-69c1.4-8,3.3-15.9,5.6-23.6c-19.2,6-38,12.8-56.4,20.3c5.7,8.5,9.7,17.8,7.5,29.9c-3,1.3-3.4-1.4-4.6-3
		c-5.1-7.2-10.2-14.5-15.4-21.6c-15.2,6.6-30.1,13.6-44.7,21.2c1.4,9,2.4,18.1,2.9,27.3c0.1,1.7,0.7,3.5-1.7,5.6
		c-7.1-7.9-15.6-14.1-24.1-20.4c-13.2,7.5-26.2,15.3-38.8,23.5c-0.3,1.1-0.7,2.1-1.3,3.1c-6.1,9.1-13,17.5-25.1,22.6
		c1.4-3.2,1.9-6.2,2.1-9C541.5,392.7,538,395.3,534.5,397.9z M636.5,565c1.9-2.4,4.2-2.2,6.7-0.9c14.1,7.2,27.6,15.2,34.7,30.4
		c0.7,1.6,2.2,2.8,2.2,5.5c-0.5,4.7-3.6,8.4-7.6,11.7c-3.7,3-6.3,0.2-9.6-1.3c-9.5-4.2-15-12.1-19.1-20.8c-2.4-5.1-3.4-10.6-8-14.8
		C632.9,572.1,634,568.1,636.5,565z M656.9,367.7c0.4-2.5,0.8-4.9,2.6-6.9c3.3-3.6,6.9-2.8,10.4,0.6c8.3,7.9,9.2,18.9,12,28.8
		c3.1,11,3,22.7,3.4,34.1c0.1,1.5-0.7,2.7-3,3.8C663.9,412.4,653.2,393.2,656.9,367.7z M657.5,444.8c5,1.2,7.8,4.7,10,8
		c6.5,9.8,13.6,19.4,15.9,31.4c1.1,5.5,3.3,11.3-1.8,16.2c-3.3,3.2-0.3,6.3,1.6,10.4c-14.1-5.7-22.1-13.9-24.2-27.9
		C657.1,470.4,656.3,458,657.5,444.8z M607,365.9c3.3-1.1,5.2,1.7,7,3.9c7.3,8.8,15,17.1,25.2,22.9c6.2,3.5,7.9,11,7.9,18
		c-0.1,12.1-0.6,24.2-1,36.2c-6.1,0.9-8-3.5-10.6-6.7c-3.4-4.2-7.1-7.5-11.9-10.4c-7.9-4.6-13.3-11.4-14.1-21.4
		c-1-11.8-3.1-23.4-4.5-35.1C604.7,370.7,603.2,367.1,607,365.9z"/>
	<path class="st0" d="M493.6,589.4c-4.5,4.1-3.5,8.2,0.2,12.2c3.9,4.2,8,8.2,13.2,10.9c12,6.4,24.2,12.5,37.6,15.8
		c1,0.3,2.1,0.6,3,1.1c16.5,8.6,34.7,10.4,54.1,12.9c-5-8.3-9-16.4-15.5-22.7c-7.7-7.4-10.9-16.5-12.3-26.8c-2.1-15.6-1.4-31.3-1-47
		c0.3-13-3.9-25.4-6-38.1c-0.5-3.1-2.1-5.5-5.4-5.9c-2.7-0.3-3.3,2.1-4.5,3.9c-3.6,5.5-7.1,6.6-13.5,4c-6.7-2.7-13.1-6.4-17.6-12.1
		c-7.4-9.3-15.3-18.1-23.4-26.8c-1.6-1.7-2.6-4.2-4.5-7.3c16,0.5,29.8,3.6,41.8,12.8c5.4,4.2,10.7,8.4,14.7,14.2
		c1.3,1.9,3.1,3.6,5.3,2.3c2.3-1.4,1.3-3.9,0.5-5.8c-4.1-9.9-8.5-19.8-12.5-29.7c-5.2-12.6-11.4-24.7-18-36.5
		c-5.4-9.6-7.1-10-16.7-4.4c-2.3,1.4-4.6,2.6-7,3.6c-21.2,17.4-41.3,36-60.3,55.7c2.3,2.8,4.5,5.9,6.2,9.2
		c3.9,7.3,6.3,15.2,8.2,23.3c1.2,4.9-0.2,9.2-2.2,13.5c-1.4,2.9-2.6,5.9-4.4,8.6c-5.7,8.8-5.7,17.2,1.5,25.2
		c7.5,8.2,14.7,16.6,21.1,25.8c1.1,1.6,2.7,2.7,4.5,1.7c1.8-1,1.7-3.1,0.9-4.7c-0.9-1.9-2.1-3.7-3.3-5.5
		c-12.7-18.9-15.2-39-6.9-60.2c2.8-7.2,6-14.2,9.7-22.9c4.6,8.7,6.3,16.3,7.5,23.9c1.5,10,4.1,19.5,7.9,28.9
		c4.5,11.4,6.3,23.4,2.5,35.8C498.1,582.4,497,586.3,493.6,589.4z"/>
	<path class="st0" d="M1019.7,467.9c-11-5.2-19.2-14.6-30.9-20.3c6.6,16.3,20.4,22.7,34,29.7
		C1020.3,474.4,1022.9,469.4,1019.7,467.9z"/>
	<path class="st0" d="M1008.7,303.5c-10.4-11.3-15.8-15.3-15.8-28.8c0-3.2,1-5.9,3.7-9.6c1.2-2.7,3.4-4.1,4.6-5.9
		c-16.4-0.8-41.9-1.1-58.5-0.8c0,0-0.1,0.1-0.1,0.1c-6.8,8.9-7.1,20.1-11,30c-1.8,4.6,1,9.2,2.2,13.6c2.1,8.2,4.8,16.2,9.8,23.5
		c-0.9-11.4-1.8-22.8-2.8-34.2c-0.3-3.6-0.3-7,1.6-10.4c3.2-5.6,7.6-10.8,12-15.2c4.9,0.9,8.5,13.6,9.1,19.3
		c0.4,3.6,0.8,7.1,1.5,10.6c0.9,5.1,0.3,10-2.1,14.6c-4,7.6-7,15.8-13.2,22c-2.7,2.8-3.2,5.8-2.8,9.7c1,9.1,13.9,35.5,20.3,43
		c-4.6-21.2-4.6-19.3-5.1-25.7c-3.1-18.7,7.6-39.3,17-47.3c2.9,1.5,3.2,4.3,7.9,10.1c4.6,8.6,5.4,10.3,7.2,17.9
		c0.2,0.7,0.4,1.4,0.4,2.1c1.2,17.7-0.3,35.1-7.4,51.6c-1.6,3.6-3.3,7.2-7.5,9.5c9.4,13.3,23.5,19.5,36.1,27.1
		c12.6,7.7,44,27.7,58.6,31.8c4.1-10.4,4.3-48.9,4.2-58.9c-0.2-16.7,9-48,14.5-63.6c9.3-26.1,10.4-27.2,22.1-52.2
		c3.5-7.5,3.5-5.2,8-12.1c-5.2-1.2-18.3-2.3-23.5-3.3c-3.1,5.8-6.4,11.5-9.9,17.1c-3.8,6.1-7.5,6.5-11.5,0.6
		c-5.2-7.6-10.5-15.2-13.8-24c-4.7-0.7-17.1-2.1-21.8-2.7c0.4,4.8,8.9,10.4,8.8,15.2c0,5.6-4.6,12.9-7.7,13.3
		c-4,0.5-10.1-6.9-10.2-13.3c-0.1-5.5,8.7-9.7,9.1-15.1c-10.2-1.1-29.1-3.1-39.4-3.8c0,6.4,4.6,10.7,8,15.2
		c6.7,8.8,10.7,18.5,10.7,29.6c0,2.4-0.3,4.9,0.6,7.4 M1043.7,319.6c3.7-7.3,8.4-13,14.4-18c4-3.3,8.3-5.6,13-5.3
		c0,0-7.1,7-7.1,11.8c0,1.8-3,11.3-3.5,13c-5.1,15.7,13.4,20.6,9.6,36.6c-0.9,3.8-2.1,7.6-3.5,11.2c-3.3,8.1-10.7,9.6-16.5,3.4
		C1037.3,359,1035.2,336.3,1043.7,319.6z M1028.7,386.3c1-3.2,6.4-16.3,6.4-16.3c3.4-0.1,5.5,11.9,6.2,14.9
		c2.8,12.5,10.5,23.7,11,36.9c0.1,1.8,0.3,3.6,0.4,5.3c0.2,4.1,0,8.9-4.8,9.4c-4.2,0.5-9.8,0.7-12.7-3.5
		C1025.5,418.8,1023.4,403,1028.7,386.3z"/>
	<path class="st0" d="M318.6,873c3,2.2,6.7,2.4,10.4,2.2c14.3-1,28.9-0.7,43-2.6c22.4-3.1,44.9-4.2,67.3-7.8c16.1-2.6,32-7,48.9-6.7
		c9.9,0.2,19.8-5.5,29.9-7.8c14-3.2,28.2-5.2,42.4-6.1c12.4-0.7,24.9-2,38.5-0.4c-3.9-8.1-10.6-11.2-16.5-14.7
		c-19.1-11.2-38.8-21.3-59.5-29.8c-14.2-5.9-28.4-11.8-42.6-17.7c-13.9-5.8-27.8-8.4-43-7c-22.9,2.2-45.7,4.7-68.5,8.3
		c-24.3,3.8-46.4-0.7-64.3-19.2c-5.1-5.2-10.6-10-18.4-3.6c-1,0.8-3.5,0.2-5.2-0.3c-1-0.3-2.1-0.5-3.1-0.8
		c-8.5,27.2-15.3,55.1-20.5,83.5c3,1,5.5,2.5,7.8,5c10,10.7,22.9,15.5,36.6,19.2C307.4,868.2,313.5,869.3,318.6,873z M475.6,805.6
		c1.4-1.4,3.3-1.6,5-0.9c9.5,3.5,19.8,3.3,29.5,5.8c3.1,0.8,6.2,1.7,9.2,3.1c6.5,3,9.5,8.6,8.3,14.6c-1.4,6.6-6.9,11.5-15.6,12.1
		c-6.7-0.7-14.8-3.8-21.6-9.2c-6.5-5.2-10.5-12.7-15-19.6C474.3,809.8,473.7,807.5,475.6,805.6z M356.1,802.7
		c9.4,1.9,12.9,11.7,20.9,15.4c8,3.7,17.1,5.8,23,15.2c0.5-7.3-3.2-11.6-4.5-16.7c-0.3-1.3-0.5-2.9,1.5-3.4c1.2-0.3,2.2,0.2,2.7,1.2
		c6.5,14.1,20.3,18.4,32.6,24.7c3.8,2,7.8,3.7,11.3,6.1c3.1,2.1,6.2,4.8,5.6,10.4c-6.2-1.1-12,0.6-17.8,1.7
		c-10.7,1.9-20.1-0.3-25-11.5c-0.6-1.4-1.4-2.4-3.1-3c0.1,6.3,1.9,11.8,7.5,16.7c-11.1,6.9-19.6,5.6-28.4-0.9
		C363.4,844.8,353.4,827.2,356.1,802.7z M322.2,823.1c-0.1-6.7-2.1-13.5,1.6-20.6c11.8,7.7,22.7,16.1,31.5,26.9
		c3.5,4.3,2.6,16.2-1.1,20.4c-1.9,2.2-4.7,2.1-7,1.2C333.9,846,322.5,842,322.2,823.1z M272,842.6c16.4-1,31.8-2.3,43.8,11
		c1.7,1.8,3.4,3.8,4.4,6c1.4,3,0.3,5.2-3.3,4.2c-9.2-2.5-18.8-4.2-27.5-8.3C283.2,852.7,275.7,851.3,272,842.6z"/>
	<path class="st0" d="M758.4,704c1.2-10.5-24.4-11.8-30.4-12.8c-18.9-3.4-37.7-8.6-57.3-5.8c-5.7,0.8-11.8-0.1-16.3-4
		c-11.8-10.6-26.5-12.1-41.1-13.7c-15.4-1.6-30.7-3-45.1-9.3c-3.3-1.4-6.8-2.4-9.9-4.3c-11.1-6.9-23.1-11.5-35.3-15.8
		c-6.1-2.1-12-4.4-17.6-7.8c-6.4-4-8.3-3.2-10.4,4.4c-1.3,4.6-2.6,8.8-7.4,11.2c-5.4,2.7-11.2,2.9-16.8,2.1
		c-13.2-1.9-25-6-31.2-19.7c-2-4.4-6.1-7.8-9.7-12.2c4.1-2.1,8.1-1.7,11.7-1.1c10.6,1.7,21.4,3.3,31.1,8.4
		c6.8,3.6,13.6,3.4,20.8,1.1c-0.1-4-3.3-5.4-5.6-7.5c-11.4-10.4-22.8-20.8-31.5-33.6c-2.2-3.3-4.1-3.3-7.9-2.6
		c-11.3,2.2-21.8,7-33.5,7.9c-8.8,0.6-16.4-1.1-23.2-6.5c-5.8-4.6-11.5-9.3-17.4-14.1c4.1-5.5,9.5-5.8,14.1-5
		c12.1,2.3,24.3,1.6,36.4,3c5.4,0.6,10.5,2.1,15.6,4.1c2,0.8,4.2,1.5,5.7-0.8c1.1-1.7,0.7-3.7-0.3-5.1
		c-7.8-11.1-11.7-24.4-21.2-34.4c3.3-4,6.6-3.2,9.6-0.6c1.6,1.4,2.5,3.5,3.9,5.1c0.9,1.1,2,2.2,3.6,1.7c2.1-0.5,2.7-2.4,2.7-4.1
		c0-6.7-1.7-13.4-6-18.1c-5.9-6.3-8.2-13.3-9.2-20.7c-8.4,9.3-16.5,18.7-24.4,28.4c0.9,4,1.8,8.1,2.6,12.1c0.9,4.2,1.7,8.4,3.7,13.7
		c-8.9,0.6-17.2,0.3-24.7-2.1C346.9,598.9,314.5,658,290.8,721c8.3,9.8,19.4,17,29.9,24.5c6.5,4.6,14.3,4.7,21.7,4.7
		c17.4-0.1,34.9-0.3,52.9-7.7c-24.1-7.4-32.9-24.7-33.9-49c9.4,3.5,16.7,8.5,22.3,16c5.1,6.9,9.9,14,14.9,21.1
		c0.8,1.2,1.7,2.3,2.3,3.6c1.3,2.8-0.4,7.2,3.6,8.3c3,0.8,6.4,0.3,9.6-0.1c23.3-2.8,46.4,1.9,70.3,2c-1.4-10.9-0.5-21.9-3.2-32.6
		c-3.5-13.7-12.4-23.3-23.4-31.2c-7.6-5.5-15.7-10.1-24.4-13.6c-2.3-1-4.6-2-7-2.9c-2.9-1.2-5.6-4-4.4-6.4c2.1-4.3,4.7,0.1,7,0.9
		c2.3,0.9,4.5,2.4,6.9,3c13.9,3.4,26.9,9.3,40.2,14.7c16.5,6.8,23.4,19.1,25,35.7c0.8,7.9,1.3,15.7,1.9,23.6
		c0.3,3.3,0.5,6.7,3.9,8.4c10.7,5.4,21.5,10.7,32.7,15.5c-16.2-16.3-18.6-37.6-21.7-58.4c-1-6.6-5-12.7-3.8-19.7
		c4-1.3,4.5,1.8,5.4,3.9c1.5,3.3,2.8,7,6.3,8.4c14.3,5.5,23.2,17.2,32.9,28.1c4.6,5.1,6.3,11.3,7.3,17.6
		c2.3,12.9-1.1,18.7-14.7,26.3c16.1,4.3,26.7,16.5,40.7,23c3.1,1.4,6.1,3.4,11.7,3.7c-14-16.4-21-33.9-21.1-53.8
		c0-5.3,3.9-12.7,9.2-19.4c3,6.7,6.3,12.9,8.6,19.4c4.1,11.4,9.7,22.1,16.2,32.3c3.2,5.1,3.7,9.9,1.1,15.2c-0.6,1.3-1.4,2.5-1.9,3.8
		c-2.8,8.1-2.3,10.4,5.2,14.2c18.7,9.4,35.3,22,51.4,35c2.2,1.8,3.5,1.8,7.1,4.2c8.1,3.7,19.5,8.5,30.2,14
		c-2.3-7.7-6.3-13.3-9.1-19.3c-3.4-7.1-7.1-14.1-8.3-22.1c-0.9-5.8,0.1-7.3,5.5-6.9c16,1.3,34.5,12.9,37.6,29
		c2.3,11.7,8.2,23.4,1.9,35.7c-1.4,2.8,0,5.1,2.4,6.4c12.3,7,23.6,16.3,38.8,17.2c9.5,2.2,29,3.6,29,3.6l20.7,1.1
		c0,0,24.9,1.1,30.3,0.3c9.5-1.4,9.9-6.3,15.2-17.2c5.2-22.9,4.2-40.7-1.6-59.5c-4.6-14.2-5.5-17.7-10.5-36.9
		c-5-15-8.8-23.3-10.9-41.1l-2.3-11c-0.2-5-5.7-15.4-9.4-18.9c-5-4.6-6.9-5.8-13.3-7c-7.4-1.1-27.1-5-33.8-5.9
		c-8-1.1-16-2.9-24.9-4.5c0.7,4,3.1,5.4,5.4,6.6c8.3,4.4,15.5,10.3,22.1,16.9c5.3,5.3,11.1,10.2,17.9,13.7c2.6,1.3,5.3,2.9,4.9,6.3
		c-0.3,3.1-3.2,3.8-5.5,4.5c-15.4,4.8-30.7,7.7-45.5-1.7c-10.6-6.7-18.5-16.6-19-28.9 M771.9,776.6c1.8-2.9,4.2-3.4,7.3-2.9
		c5.3,0.8,10.6,1.6,15.9,1.8c17.3,0.6,25.6,12.4,32.8,25.8c0.5,0.9,0.7,2,1,3.1c1,3.9,0,6.4-4,6.2c-13.7,0.3-24.9-5.3-35.4-12.1
		c-5.9-3.8-11.8-8.1-16.1-14C771.7,782,770,779.7,771.9,776.6z M325.2,732.7c-9,0.1-14.8-5.9-14.7-15.4c0.1-8.2-0.3-16.5,1.2-24.7
		c0.7-3.7,0.7-7.8,5-12.5c1.9,11.3,5.8,19.6,10.8,27.5c3.1,4.9,4.3,10.7,5.3,16.3C333.9,729.9,331.2,732.7,325.2,732.7z
		 M426.7,689.5c8.2-0.6,18.5,10.9,18.9,19.1c0.2,4.4-1.6,6.8-5.8,7.6c-15.2,2.9-30-2.4-34.6-14.6c-2.9-7.6-9.3-13.3-13.9-20.3
		C402.5,687.7,414,690.4,426.7,689.5z M720.6,761c-0.1,4.5-1.4,6.7-4.7,8.4c-11.2,5.9-29.4,0.6-36-10.4c-4.4-7.5-7.8-15.5-9.2-24
		c-2-11.9-9.1-19.1-19.4-23.9c-0.9-0.4-2-0.9-2.3-3c2.1-3.3,5.1-2.8,7.8-2c11.1,3,22.3,5.2,33,9.7c10.4,4.5,18,11.7,23,21.7
		C716.6,744.9,720.7,752,720.6,761z"/>
	<path class="st0" d="M908.1,833.1c2.8,5.2,3.5,10.7,4.3,16.3c1.9,15.1,7.5,29,15.2,42.8c3.1-3.7,2.7-7.4,3.1-11
		c0.5-3.6,0.8-7.1,1.3-10.7c4.5-29.8,5.7-59.9,10.9-89.6c2-11.5,5.2-22.5,11.3-32.4c6.6-10.7,11.4-22.3,17-33.5
		c7.1-14.1,15-27.8,25.5-39.7c4.1-4.6,5.5-9.5,4.8-15.8c-1.3-12.1-3.3-24.2-3.2-36.4c0.1-10.2-5-18.8-10.7-26.5
		c-12.3-16.6-27.5-30.3-47.3-37.5c-7.6-2.8-15.4-5.1-23-8c-14.1-5.4-28.9-3.2-43.5-3.4c-1.6,0-3.2,1.4-4.7,2.1
		c1.3,4.3,9.2,1.1,3.1,6.3c-20.7,17.3-37.4,20.4-55.9,17.2c-8.7-1.5-15.4-7.8-24-9c-2.2-0.3-2.8-2.3-2.5-4.1c0.5-3,3.1-4.5,5.5-4.1
		c15.3,2.7,29.6-4.9,44.7-4.5c0.9,0,19.5-1.8,19.5-1.8c32.5-0.9-23.1-4-27.2-4.1c-3.6-0.1-7.3-0.3-10.2-2.8
		c-6.4-5.8-13.7-8.3-22.5-8.3c-6.7,0-13.6-1-19.7-4.4c-4.3-2.4-9.2,1.9-14.2-1.9c7.2-4.3,12.9-10.5,22.3-9c2.4,0.4,5-0.1,7.5-0.3
		c16.3-1.3,32.7-2.6,51.4-4.2c-19-8.7-28.9-22.1-35.3-38.6c-0.8-2-1.4-4.2-1.4-6.3c-0.2-5.7-3.6-12.2,2.9-16.5
		c13.3-8.7,17.2-8.8,27-1.6c16.2,12,22.8,28.9,24.2,48.2c0.3,4.7,1.9,9.9-2.7,14.9c12.6,2.5,24.4,5.7,36.5,5.8
		c20.7,0.1,40.7,2.7,59.7,11.2c0.5,0.2,1.2-0.1,2.3-0.2c0.1-6.6-4.8-10.2-8.4-14.3c-7.7-8.6-5.9-18.7-4.9-28.6
		c0.3-3.4,4.9-4.6,7.7-2c8,7.2,16.5,14.2,18.2,25.8c1.1,7.8,6.9,15.3,1.5,23.8c-1.3,2-5.1,9-3.2,10.4c6.6,4.9,18.4,11,24.8,16.2
		c5,4,9.2,5.9,12.7,11.6l0.6,0.8c9.5,8.9,9.2,12.3,9.8,22.2c0.6,10.5,5.5,47.1,3.6,58.2c2.8-1.2,9.9-30.3,10.3-32.1
		c3.5-21.2,9.2-41.9,13.3-62.9c2.6-13.1,3.5-27.2-2.1-40.3c-5.4-12.6-11.8-24.4-27.1-27.8c-3.2-0.7-5.8-4-8.8-6
		c-12.1-8.3-25.2-15.3-36.2-25.2c-5-4.5-13.8-2.7-19.5-1.7c-13.4,2.4-17.2-11.3-26.2-16.9c-2.3-1.4-17-9.8-16.2-12.3
		c0.9-2.6,17.6,1.4,20.3,1.4c3.2,0,21.9-6.5,30.8,15.7c11.4,2.3,89.8,54.4,102.4,60c15.5-47.5-103.8-84.9-105.6-99.7
		c-10.2,6.1-25.1,6.8-34.9,1.8c-15.7-8.1-17.5-10.8-21.9-27.9c-1.3-5.2,0.1-14.7-4.7-23.5c-0.3-4-3-5.4-5.2-11.4
		c0,0,17.8,11.3,21.1,13.8c8.5,6.3,22.4,15.2,37.6,35.5c-1.2-5.4-21.6-40.3-22.5-44.5c-0.5-2.4-1.9-3.5-4.5-3.6
		c-11.9-0.2-20.2-7.4-27-15.8c-12-14.9-23.2-19.4-28.6-37.9c-1-3.4-4.9-20.9-2.3-23.5c9.3,0.5,25.1,18.7,28.1,20.5
		c5.8,7.6,25.6,0.8,45.1,40.2c-5.9-36.3-36-66.5-51.6-69.6c-1-1.5,0.8,1.6,0,0c-29.4,3-58.3,7.7-86.5,14.1
		c-0.8,5.3-1.7,10.5-3.9,15.5c-0.6,1.2-0.8,2.8-2.6,3c-0.3-0.1-0.8,0-0.9-0.2c-2.6-4.9-5.4-9.8-8.2-14.6c-5.4,1.3-10.7,2.7-16,4.2
		c3.7,10.2,6.9,20.3,6.8,31.9c-0.2,17.4-9.2,28.3-20,38.6c-9.9,9.4-12.4,20.1-9.1,32.2c3,11.1,0.3,22.2,1.9,33.2
		c0.1,1-0.2,2.3-0.8,3c-9.5,13.2-9.6,30.7-20,43.4c-11.1,35.1-7.4,59.9,21,83.2c17.6,14.4,33.5,30.2,49.1,46.5
		c6.2,6.5,11.3,14.1,13.4,23c4.7,20.1,15,35.9,33.2,46.4c7.5,4.3,13,11.2,19.2,17.2c1.6,1.5,3.1,3,3.7,5.2
		c3.2,11.8,7.2,22.7,11.2,34.1c8,23.1,4.4,8.3,10.9,34.3c1.1,4.6,2.6,8.9,4.9,13.1 M959.7,597.8c1.4-3,5.1-2.3,7.7-1.6
		c2.2,0.6,3.2,2.9,2.3,5.2c-2.1,5.5,1.5,9.5,3.2,14.1c6.3,16.8,9.4,33.8,2.9,51.3c-1.8,4.8-2.6,11-9.8,11.1
		c-4.5,0.1-7.9-4.3-9.6-12.6c-0.9-4.2-1.2-8.5-1.7-12.8c-0.3-6.1-1.2-12-2.5-17.9C949.1,621.5,954.1,609.5,959.7,597.8z
		 M1026.4,566.2c-5.2-1.1-36.4-31.2-38.2-36.7c-1.2-3.6-3.9-6.8-5.8-10.2c-7.8-13.9-9.6-28.7-7.8-46.4
		c16.9,10.8,31.9,20.3,45.7,31.7c3.1,2.6,3.7,6.1,5.1,9.2c3.7,8.4,9.8,15.5,12.3,24.8c2.4,8.7,0,16.2-2.5,23.9
		C1034,566.6,1030.2,567.6,1026.4,566.2 M915.2,503.1c-2.7,4.2,1.4,10.8-4.7,14c-5.8,3.1-9.4-1.7-13.3-4.4
		c-6.8-4.6-11.1-11.1-13-19.1c-1.1-4.5-1.9-9.1-3.1-13.6c-0.8-3,0-5.8,0.9-8.4c2.2-6.7,7.9-8.5,13.3-3.9
		C906.1,476.9,910.3,489.9,915.2,503.1z M835.1,383.1c5.2-10.1,10.6-20.2,9.1-34.4c15.5,11,30.6,19.2,38.7,35.2
		c7.4,14.6,3.8,30.7-8.9,39.1c-7.1,4.6-15.6,4.5-23.4,4c-7.1-0.5-12.8-6.2-14.9-12.6C832.3,404.2,829.7,393.5,835.1,383.1z
		 M772.8,350.5c5.9-14.1,13.8-27.5,26.2-37.3c2.6-2.1,5-4.1,8.5-3.2c0.3,0.7,0.7,1.4,0.7,2c2.9,26.9,6.9,31.1-15.9,54.1
		c-5.2,5.3-9.3,11.8-14.1,17.5c-3.1,3.7-4.8,3.1-6.9-1C765.5,371.6,768.6,360.4,772.8,350.5z M772.4,422.4c0.2-4.7,2-9,4.4-13.1
		c1.2-2.2,2.6-4,2.2-6.9c-0.8-6.1,3.1-8.2,8.4-8.6c0.7-0.1,1.4-0.1,2.1-0.2c12.1-0.4,35.9,14.9,40.8,25.9c2.1,4.7,0.8,9-0.3,13.5
		c-1.1,4.6-3.6,6.7-8.5,8c-6.4,1.7-11.3,7.6-18.6,7.4C783.8,448.1,771.8,440,772.4,422.4z M746.3,476.8c-0.4-2.4,0.5-5.6-1.4-7.1
		c-2.4-1.9-4.1-3-0.9-5.2c2.6-1.8,6.1-4.3,8.5-0.8c5.4,7.5,14,10.9,20.2,17.4c5.1,5.3,8.2,11.5,9.7,17.4c0.5,7.1-3.2,9.9-9.6,8.6
		C760,504.3,748.4,491.2,746.3,476.8z M891.5,660c-1.8,2.3-4.1,2.4-6.8,1.9c-11.6-1.8-23.1-12.5-26.1-24.3c-1.6-6.3-3.4-12.5-3.4-19
		c0-2.4,0.7-4.2,3.3-5.1c0.8,0.3,2.2,0.5,2.6,1.2c3.9,6.3,10.8,9.2,15.9,14.2c6.8,6.6,10.3,15.5,15.6,23.1
		C894.5,654.6,893.4,657.5,891.5,660z M898.7,637.1c-9.4-9.2-18.7-18.6-25.1-30.5c-3.5-6.5-5.1-13.3-5.7-20.3c-0.5-5.9,2.9-8,8-5.2
		c21.2,11.4,41.4,24.2,55.1,44.8c4,6.1,11,11,8.4,19.2c0.6,1.7,1.1,2.7,1.2,3.8c0.8,7.5-4.4,11.9-11.2,9.1
		C917.8,653.1,907.6,645.9,898.7,637.1z M915.1,716.5c-0.8-12.4,1.5-24.2,6-35.6c1.1-2.8,3.2-4.7,5-6.9c2.8-3.5,6-4.1,9.1-1
		c2.9,2.8,7.7,6.1,3.6,10.6c-3.5,3.9-2.2,7.1-0.5,10.7c2.5,5.3,3.4,10.9,4.4,16.6c2.1,12.7-2.9,23-10,32.8c-2.3,3.2-4.1,1.7-6-0.2
		C918.8,736.2,915.7,726.9,915.1,716.5z"/>
	<path class="st0" d="M286,754.8c2.9-0.8,3.7-3.2,3.8-5.8c0.2-5.6-1-10.8-3.6-15.3c-2.2,6.2-4.3,12.4-6.3,18.7
		C281.4,754.2,283.4,755.5,286,754.8z"/>
	<path class="st0" d="M906.9,279.3c-4-1.2-7.4-2.2-10.8-3.2c0,4.3,3.5,6.1,6.2,8.2c4.7,3.7,9.6,7.2,14.5,10.9
		c2.3-3.8,1.9-7.6,1.7-11c-0.6-8.6-0.2-16.6,3.3-24.9c-3.9,0.2-7.8,0.5-11.7,0.7C910.2,266.4,909.2,272.8,906.9,279.3z"/>
	<path class="st0" d="M1527,768.4c9.6-3.9,19-8.5,28.8-11.7c24.8-8,48.9-18.1,75.2-20.7c-11.5-33-25.3-64.9-41.3-95.4
		c-8.3,0.3-16.6,1.2-24.9,1.3c-11.2,0.1-18.8-7.3-23.6-16.3c-3.1-5.9-17.6-20-22.3-17.7c-16.5,8-35.7,23.3-48.9,36.4
		c-4.7,4.7-15.6,20.7-19.5,28.9c12.8-5.3,44.1-10.4,56-11.5c6.2-0.6,12.7-0.9,18,1.8c12.1,6,25.1,5.3,37.7,7.1
		c2.1,0.3,4.6,0,6.3,1.1c6.9,4.4,14.4,3.8,21.9,3.2c3.2-0.2,6.5-0.4,9.6,0c3,0.4,5.5,2.4,5.6,5.6c0.1,3.6-2.1,6.6-5.6,6.7
		c-10,0.2-20.1,3.2-29.9-0.6c-6.5-2.5-13.2-3.5-20-3.3c-22.2,0.4-44.5-0.4-66.7,2.2c-5.3,0.6-10.8,0.8-11.9,8.2
		c-0.5,3.7-4.5,4.4-7.8,4.3c-10.9-0.5-19.5,4.8-27.2,11.4c-12.3,10.5-24.2,21.4-36,32.4c-8.6,8-18.3,13.6-29.9,16.1
		c-12.5,2.7-53.3-0.5-64.9,6.5c9.1,3.3,46.6,17.5,53.9,22.1c5.3,3.3,11.4,4.8,17.4,4.9c24.1,0.6,48.3,0.8,71.9-4.1
		C1475.2,781.7,1502,778.6,1527,768.4z M1560.9,716.4c5,0,7.8,3.3,7,8.4c-0.7,4.6-2.3,8.8-5.1,12.7c-10.6,14.7-25.6,21.1-43,23.2
		c-4.6,0.7-9.4,1.3-11.9-4.2c-2.3-5-0.7-9,3.2-12.4c13.2-11,27-21.1,43.6-26.5C1556.7,717.1,1558.9,716.4,1560.9,716.4z
		 M1462.3,711.5c2.3-3.5,6-5.1,9.2-7.3c11.4-7.8,24.1-12.5,39.5-14.1c1.3-0.2,4.1-0.1,6.9,0.8c10.3,3.1,20.5,6.3,30.7,9.6
		c2.4,0.8,4.7,2.3,4.5,5.3c-0.2,2.5-2.5,3.5-4.4,4.1c-9.5,3.1-19.1,6.1-28.7,9c-5.1,1.5-10.4,2.5-15.6,3.8
		c-12.2,3.1-24.7,2.4-37,2.3C1460.2,724.8,1458,717.7,1462.3,711.5z M1413.2,777.1c-1.9,0.8-3.5,0.1-4.6-1.5c-1.5-2.1-2.6-4.2-1.6-7
		c3.6-10.2,21.4-19.4,34.3-17.3C1435.6,764.2,1425.6,771.9,1413.2,777.1z"/>
	<path class="st0" d="M1622.8,886.3c11.2-8.5,21.5-14.4,34.5-16.5c2-0.3,4-0.6,6-0.8c-2.8-19.2-6.3-38.1-10.5-56.7
		c-19.6-5.5-34.6-19-48.3-36.8c14.6-3,27.5-2,39.7,2.8c-2.2-7.9-4.5-15.8-7-23.7c-3.6,0.3-7.3,0.4-11,0.2c-15.1-0.8-29.6,1.2-44,7.4
		c-25.9,11.1-51.3,23.5-78.6,30.8c-7.2,1.9-14.7,3.4-22.1,4.4c-10.1,1.4-19.5,4.9-28.6,9.2c-4.3,2.1-8.8,3-13.4,3.6
		c-1.8,0.3-3.4,1.4-3.7,3.3c-0.3,2,0.9,3.3,2.5,4.4c7.1,4.8,14.1,9.8,21.3,14.4c7.4,4.7,10.4,4.5,17.5-0.7
		c11.9-8.7,24.3-16.2,38.5-21.1c12.5-4.3,24.3-10.5,36.3-16.3c18.1-8.8,35.6-5.1,53,1.9c4.2,1.7,6.7,4.8,4.9,9.3
		c-1.7,4.1-5.3,3.9-9.2,3c-4.1-1-8.4-1.7-12.7-2c-12.2-0.8-20.4,6.8-29.7,12.7c10.2-1.2,19.3,2.2,28.2,6c5.6,2.4,11.3,4.4,17.5,4.9
		c3.7,0.3,7,2.3,7,6.8c-0.1,4.4-3.3,6.5-7,6.9c-12.8,1.3-24.8,6.4-37.6,7.7c-11.9,1.1-22.3-4.1-32.6-8.9c-1.8-0.9-1.9-2.7-1.7-4.7
		c0.4-3.5,1.8-7,1.2-10.2c-12.3-2.9-22.6,1.6-32.6,7.8c-10.4,6.6-11.3,14.2-1.2,20.8c14.4,9.4,30.1,16.4,47.5,18.9
		c11,1.6,22,2.8,32.9,5.4c11,2.6,21.2,6.8,30.5,13.1c11.9,8.1,24.2,15.4,38.6,18.4c7.9,1.6,13.8,6.8,20.1,11.4
		c-0.2-3.5-0.4-7-0.7-10.5c-0.1-1.1-0.2-2.1-0.3-3.2c-3.9-1.4-7.7-3.1-11.4-5.1C1645.8,898.6,1635.3,891.8,1622.8,886.3z"/>
	<path class="st0" d="M1171.2,876.5c20.1-16.7,43.2-18.9,66.9-11.7c22.9,7,44.9,16.6,66.2,27.7c4.5,2.3,7.9,6.1,12.5,8.2
		c16.8,7.9,34.3,10.2,52.1,6.2c8.8-2,17.9-4.7,25.6-9.9c7.1-4.8,13.9-10.2,20.9-15.2c7.9-5.7,15.1-12.2,21.1-19.8
		c3.8-4.8,3.1-7.2-2.2-10.4c-5.6-3.3-11.7-5.6-18-7c-6.8-1.5-12.1,0.8-16.5,7c-8.6,12.3-18.3,23.8-26.6,36.3
		c-3.7,5.6-9.7,4.5-10.8-2c-1.4-8.3-1.3-16.9-1.7-25.4c-0.1-2.6,1.3-4.7,2.8-6.8c5.3-7.6,8.1-13.8,17.3-16c2.3-0.5,3.5-1.6,7.8-3.4
		c10.1-5.1,19.8-11.4,17.9-11.5c-11.1-0.5-27.7-11.9-38.7-12.5c-5.7-0.3-26.3-10.2-31.8-12c-26.3-9-53.6-22.3-82.5-14.8
		c-14.2,3.7-43.7,16.7-56.5,25c-21,13.5-22.4,53.1-36.7,73.8c1.5-0.7,3-1.3,4.5-2.1C1167,879.1,1169.3,878.1,1171.2,876.5z"/>
	<path class="st0" d="M1503.4,585.3c-1,5.9,1.3,8.2,7,6.6c6.2-1.7,12.3-3.6,18.4-5.7c8-2.8,15.7-6.3,24-7.8
		c-4-6.1-8.2-12.2-12.4-18.1c-4.9,4-11,6.8-18.1,7.4C1512.4,568.4,1505,575.9,1503.4,585.3z"/>
</g>
</svg>
